OpenSansCondensed-CondensedBold.ufo
<glyph name="at" format="2">
  <advance width="1485"/>
  <unicode hex="0040"/>
  <note>
at
</note>
  <outline>
    <contour>
      <point x="738" y="-168.1" type="curve" smooth="yes"/>
      <point x="872.1" y="-168.1"/>
      <point x="993.7" y="-139"/>
      <point x="1104.1" y="-80.5" type="curve"/>
      <point x="1104.1" y="102.4" type="line"/>
      <point x="981.6" y="43.1"/>
      <point x="856.3" y="12.4"/>
      <point x="742.6" y="12.4" type="curve" smooth="yes"/>
      <point x="448.5" y="12.4"/>
      <point x="279.3" y="232.4"/>
      <point x="279.3" y="606.5" type="curve" smooth="yes"/>
      <point x="279.3" y="972.7"/>
      <point x="454.2" y="1297.9"/>
      <point x="790.9" y="1297.9" type="curve" smooth="yes"/>
      <point x="1084.8" y="1297.9"/>
      <point x="1207.7" y="1070.1"/>
      <point x="1207.7" y="749.4" type="curve" smooth="yes"/>
      <point x="1207.7" y="602.2"/>
      <point x="1185.2" y="403"/>
      <point x="1098.9" y="403" type="curve" smooth="yes"/>
      <point x="1076.7" y="403"/>
      <point x="1058.4" y="412.9"/>
      <point x="1046.3" y="434" type="curve" smooth="yes"/>
      <point x="1033.9" y="455.4"/>
      <point x="1027.7" y="491.8"/>
      <point x="1027.7" y="547.2" type="curve" smooth="yes"/>
      <point x="1027.7" y="559.5"/>
      <point x="1027.7" y="572.8"/>
      <point x="1027.7" y="585.1" type="curve" smooth="yes"/>
      <point x="1049.8" y="1051.6" type="line"/>
      <point x="958.2" y="1079.7"/>
      <point x="866.4" y="1093.9"/>
      <point x="798.3" y="1093.9" type="curve" smooth="yes"/>
      <point x="561" y="1093.9"/>
      <point x="429.9" y="893.9"/>
      <point x="429.9" y="598.5" type="curve" smooth="yes"/>
      <point x="429.9" y="353.3"/>
      <point x="532.2" y="231"/>
      <point x="685.6" y="231" type="curve" smooth="yes"/>
      <point x="789.7" y="231"/>
      <point x="849" y="286.3"/>
      <point x="901.4" y="370.8" type="curve"/>
      <point x="908.3" y="370.8" type="line"/>
      <point x="929.5" y="291.3"/>
      <point x="996.3" y="231"/>
      <point x="1104.5" y="231" type="curve" smooth="yes"/>
      <point x="1293" y="231"/>
      <point x="1410.7" y="422.1"/>
      <point x="1410.7" y="753.2" type="curve" smooth="yes"/>
      <point x="1410.7" y="1187.1"/>
      <point x="1203.8" y="1477.9"/>
      <point x="792.9" y="1477.9" type="curve" smooth="yes"/>
      <point x="337.2" y="1477.9"/>
      <point x="73.9" y="1085.4"/>
      <point x="73.9" y="596.8" type="curve" smooth="yes"/>
      <point x="73.9" y="143.6"/>
      <point x="308.4" y="-168.1"/>
    </contour>
    <contour>
      <point x="726.7" y="403" type="curve" smooth="yes"/>
      <point x="697.7" y="403"/>
      <point x="676.1" y="418.7"/>
      <point x="660.5" y="455.3" type="curve" smooth="yes"/>
      <point x="644.5" y="491"/>
      <point x="637.4" y="541"/>
      <point x="637.4" y="604.3" type="curve" smooth="yes"/>
      <point x="637.4" y="711.9"/>
      <point x="656" y="795.2"/>
      <point x="686.5" y="850.3" type="curve" smooth="yes"/>
      <point x="710.4" y="895.6"/>
      <point x="742.8" y="922.3"/>
      <point x="782.7" y="922.3" type="curve" smooth="yes"/>
      <point x="803.6" y="922.3"/>
      <point x="829" y="917.9"/>
      <point x="844.2" y="911.5" type="curve"/>
      <point x="831.7" y="682.8" type="line" smooth="yes"/>
      <point x="826.4" y="584.3"/>
      <point x="814" y="513.7"/>
      <point x="799.1" y="472" type="curve" smooth="yes"/>
      <point x="784.2" y="430.3"/>
      <point x="761.6" y="403"/>
    </contour>
  </outline>
</glyph>
<glyph name="C" format="2">
  <advance width="948"/>
  <unicode hex="0043"/>
  <anchor x="558" y="0" name="bottom"/>
  <anchor x="557" y="1453" name="top"/>
  <outline>
    <contour>
      <point x="598.2" y="-20" type="curve" smooth="yes"/>
      <point x="700.7" y="-20"/>
      <point x="798.8" y="2.7"/>
      <point x="869.7" y="50.9" type="curve"/>
      <point x="869.7" y="292.8" type="line"/>
      <point x="793.7" y="249"/>
      <point x="710.5" y="218.9"/>
      <point x="628.2" y="218.9" type="curve" smooth="yes"/>
      <point x="556.3" y="218.9"/>
      <point x="501.8" y="245.2"/>
      <point x="461.2" y="296.1" type="curve" smooth="yes"/>
      <point x="394" y="377.9"/>
      <point x="361.4" y="527.3"/>
      <point x="361.4" y="717.6" type="curve" smooth="yes"/>
      <point x="361.4" y="1058.2"/>
      <point x="458" y="1245.4"/>
      <point x="616.4" y="1245.4" type="curve" smooth="yes"/>
      <point x="697.2" y="1245.4"/>
      <point x="777.3" y="1193.8"/>
      <point x="820.7" y="1162.7" type="curve"/>
      <point x="910.5" y="1384.5" type="line"/>
      <point x="798" y="1457"/>
      <point x="704.6" y="1482.9"/>
      <point x="601.6" y="1482.9" type="curve" smooth="yes"/>
      <point x="450" y="1483"/>
      <point x="328" y="1423"/>
      <point x="240" y="1311" type="curve" smooth="yes"/>
      <point x="139" y="1182"/>
      <point x="84" y="983"/>
      <point x="84.4" y="728" type="curve" smooth="yes"/>
      <point x="84" y="313"/>
      <point x="228" y="-20"/>
    </contour>
  </outline>
</glyph>
<glyph name="J" format="2">
  <advance width="530"/>
  <unicode hex="004A"/>
  <anchor x="265.4" y="0" name="bottom"/>
  <anchor x="265.4" y="1462" name="top"/>
  <outline>
    <contour>
      <point x="20" y="-422.2" type="curve" smooth="yes"/>
      <point x="85.9" y="-422.2"/>
      <point x="157" y="-403.3"/>
      <point x="216.4" y="-366.1" type="curve" smooth="yes"/>
      <point x="331.2" y="-296.5"/>
      <point x="401.3" y="-147.6"/>
      <point x="401.3" y="44.9" type="curve" smooth="yes"/>
      <point x="401.3" y="1462" type="line"/>
      <point x="129" y="1462" type="line"/>
      <point x="129" y="31" type="line" smooth="yes"/>
      <point x="129" y="-43"/>
      <point x="114.1" y="-103.9"/>
      <point x="83.3" y="-136.3" type="curve" smooth="yes"/>
      <point x="58.1" y="-164.8"/>
      <point x="16.6" y="-180.3"/>
      <point x="-27.5" y="-180.3" type="curve" smooth="yes"/>
      <point x="-71.5" y="-180.3"/>
      <point x="-110.9" y="-173.3"/>
      <point x="-154.4" y="-160.3" type="curve"/>
      <point x="-154.4" y="-397.2" type="line"/>
      <point x="-112.3" y="-414.2"/>
      <point x="-61.4" y="-422.2"/>
    </contour>
  </outline>
</glyph>
<glyph name="c" format="2">
  <advance width="760"/>
  <unicode hex="0063"/>
  <anchor x="440" y="0" name="bottom"/>
  <anchor x="380.3" y="1114.4" name="top"/>
  <outline>
    <contour>
      <point x="480" y="-20" type="curve" smooth="yes"/>
      <point x="567.6" y="-20"/>
      <point x="642" y="2.4"/>
      <point x="712.6" y="44.6" type="curve"/>
      <point x="712.6" y="278.6" type="line"/>
      <point x="641.5" y="231.7"/>
      <point x="566.4" y="208.8"/>
      <point x="508.9" y="208.8" type="curve" smooth="yes"/>
      <point x="445.6" y="208.8"/>
      <point x="409" y="236.3"/>
      <point x="383.7" y="294.8" type="curve" smooth="yes"/>
      <point x="360.2" y="349.3"/>
      <point x="346.2" y="435.7"/>
      <point x="346.2" y="555.1" type="curve" smooth="yes"/>
      <point x="346.2" y="668.5"/>
      <point x="358.5" y="759.1"/>
      <point x="384.1" y="819.2" type="curve" smooth="yes"/>
      <point x="408.7" y="876.2"/>
      <point x="446" y="906.8"/>
      <point x="506.8" y="906.8" type="curve" smooth="yes"/>
      <point x="548.7" y="906.8"/>
      <point x="598.1" y="891.2"/>
      <point x="652.9" y="857.6" type="curve"/>
      <point x="729.1" y="1064.1" type="line"/>
      <point x="654.7" y="1111.5"/>
      <point x="565.8" y="1135.4"/>
      <point x="469.4" y="1135.4" type="curve" smooth="yes"/>
      <point x="212.5" y="1135.4"/>
      <point x="73.6" y="947.9"/>
      <point x="73.6" y="561.5" type="curve" smooth="yes"/>
      <point x="73.6" y="172"/>
      <point x="216.1" y="-20"/>
    </contour>
  </outline>
</glyph>
<glyph name="g" format="2">
  <advance width="936"/>
  <unicode hex="0067"/>
  <anchor x="468.3" y="0" name="bottom"/>
  <anchor x="471.8" y="1114.4" name="top"/>
  <outline>
    <contour>
      <point x="597.8" y="1111.6" type="line"/>
      <point x="566.8" y="1122.8"/>
      <point x="497.3" y="1135.4"/>
      <point x="452.3" y="1135.4" type="curve" smooth="yes"/>
      <point x="214" y="1135.4"/>
      <point x="82" y="996.2"/>
      <point x="82" y="752.6" type="curve" smooth="yes"/>
      <point x="82" y="611.5"/>
      <point x="139" y="486.2"/>
      <point x="231.1" y="430.3" type="curve"/>
      <point x="160.2" y="370.6"/>
      <point x="116.6" y="327.4"/>
      <point x="116.6" y="244.9" type="curve" smooth="yes"/>
      <point x="116.6" y="169.4"/>
      <point x="164.8" y="110.1"/>
      <point x="232.5" y="83.9" type="curve"/>
      <point x="97.1" y="41.2"/>
      <point x="17.5" y="-57.9"/>
      <point x="17.5" y="-182" type="curve" smooth="yes"/>
      <point x="17.5" y="-380.9"/>
      <point x="155.9" y="-492"/>
      <point x="403" y="-492" type="curve" smooth="yes"/>
      <point x="728.3" y="-492"/>
      <point x="906.7" y="-345"/>
      <point x="906.7" y="-85.4" type="curve" smooth="yes"/>
      <point x="906.7" y="119"/>
      <point x="800.3" y="221.3"/>
      <point x="612.2" y="221.3" type="curve" smooth="yes"/>
      <point x="450.4" y="221.3" type="line" smooth="yes"/>
      <point x="369.4" y="221.3"/>
      <point x="329.3" y="244"/>
      <point x="329.3" y="291.7" type="curve" smooth="yes"/>
      <point x="329.3" y="332.1"/>
      <point x="354.3" y="358"/>
      <point x="383.3" y="380.6" type="curve"/>
      <point x="399" y="375.8"/>
      <point x="423.8" y="373"/>
      <point x="456.3" y="373" type="curve" smooth="yes"/>
      <point x="685.8" y="373"/>
      <point x="820.6" y="513.2"/>
      <point x="820.6" y="750.1" type="curve" smooth="yes"/>
      <point x="820.6" y="821"/>
      <point x="807.3" y="879"/>
      <point x="782.7" y="926.1" type="curve"/>
      <point x="914.6" y="955.7" type="line"/>
      <point x="914.6" y="1111.6" type="line"/>
    </contour>
    <contour>
      <point x="259.9" y="-162.1" type="curve" smooth="yes"/>
      <point x="259.9" y="-70.1"/>
      <point x="306.9" y="-12.1"/>
      <point x="379.1" y="-12.1" type="curve" smooth="yes"/>
      <point x="507.9" y="-12.1" type="line" smooth="yes"/>
      <point x="627.1" y="-12.1"/>
      <point x="661.6" y="-43.4"/>
      <point x="661.6" y="-126.8" type="curve" smooth="yes"/>
      <point x="661.6" y="-234.5"/>
      <point x="581.1" y="-299.2"/>
      <point x="420.3" y="-299.2" type="curve" smooth="yes"/>
      <point x="317.6" y="-299.2"/>
      <point x="259.9" y="-250.1"/>
    </contour>
    <contour>
      <point x="342" y="750.6" type="curve" smooth="yes"/>
      <point x="342" y="886.8"/>
      <point x="379.1" y="956.6"/>
      <point x="453.1" y="956.6" type="curve" smooth="yes"/>
      <point x="524.8" y="956.6"/>
      <point x="561.3" y="888.1"/>
      <point x="561.3" y="752.2" type="curve" smooth="yes"/>
      <point x="561.3" y="619.1"/>
      <point x="525" y="552.7"/>
      <point x="453.1" y="552.7" type="curve" smooth="yes"/>
      <point x="379.4" y="552.7"/>
      <point x="342" y="619.1"/>
    </contour>
  </outline>
</glyph>
<glyph name="k" format="2">
  <advance width="965"/>
  <unicode hex="006B"/>
  <anchor x="483.4" y="0" name="bottom"/>
  <anchor x="483.4" y="1114.4" name="top"/>
  <outline>
    <contour>
      <point x="112.8" y="0" type="line"/>
      <point x="379.3" y="0" type="line"/>
      <point x="379.3" y="377" type="line"/>
      <point x="483.2" y="470.6" type="line"/>
      <point x="684.2" y="0" type="line"/>
      <point x="962.7" y="0" type="line"/>
      <point x="662.7" y="656.6" type="line"/>
      <point x="943.5" y="1114.4" type="line"/>
      <point x="662" y="1114.4" type="line"/>
      <point x="442.3" y="733.1" type="line" smooth="yes"/>
      <point x="417.5" y="689.4"/>
      <point x="397.1" y="644.7"/>
      <point x="375" y="600" type="curve"/>
      <point x="366.7" y="600" type="line"/>
      <point x="370.8" y="674.3"/>
      <point x="379.3" y="748.3"/>
      <point x="379.3" y="822.6" type="curve" smooth="yes"/>
      <point x="379.3" y="1556" type="line"/>
      <point x="112.8" y="1556" type="line"/>
    </contour>
  </outline>
</glyph>
<glyph name="l" format="2">
  <advance width="489"/>
  <unicode hex="006C"/>
  <anchor x="205.5" y="0" name="bottom"/>
  <anchor x="245.5" y="557" name="center"/>
  <anchor x="245.5" y="1556" name="top"/>
  <anchor x="793" y="1556" name="topright"/>
  <outline>
    <contour>
      <point x="379.3" y="1556" type="line"/>
      <point x="112.8" y="1556" type="line"/>
      <point x="112.8" y="0" type="line"/>
      <point x="379.3" y="0" type="line"/>
    </contour>
  </outline>
</glyph>
<glyph name="r" format="2">
  <advance width="690"/>
  <unicode hex="0072"/>
  <anchor x="215" y="0" name="bottom"/>
  <anchor x="345.1" y="1114.4" name="top"/>
  <outline>
    <contour>
      <point x="112.8" y="0" type="line"/>
      <point x="379.3" y="0" type="line"/>
      <point x="379.3" y="572.9" type="line" smooth="yes"/>
      <point x="379.3" y="636.4"/>
      <point x="387.6" y="690.4"/>
      <point x="402.1" y="735" type="curve" smooth="yes"/>
      <point x="430.4" y="821"/>
      <point x="492.8" y="872"/>
      <point x="575.6" y="872" type="curve" smooth="yes"/>
      <point x="611.8" y="872"/>
      <point x="634" y="868.4"/>
      <point x="653.1" y="861.9" type="curve"/>
      <point x="683.8" y="1120.7" type="line"/>
      <point x="653.4" y="1130.4"/>
      <point x="622.8" y="1135.4"/>
      <point x="585.3" y="1135.4" type="curve" smooth="yes"/>
      <point x="493.4" y="1135.4"/>
      <point x="427.5" y="1073.8"/>
      <point x="370.9" y="939.8" type="curve"/>
      <point x="362.5" y="939.8" type="line"/>
      <point x="332.2" y="1114.4" type="line"/>
      <point x="112.8" y="1114.4" type="line"/>
    </contour>
  </outline>
</glyph>
<glyph name="y" format="2">
  <advance width="913"/>
  <unicode hex="0079"/>
  <anchor x="746.6" y="0" name="bottom"/>
  <anchor x="457.2" y="1114.4" name="top"/>
  <outline>
    <contour>
      <point x="179.7" y="-492" type="curve" smooth="yes"/>
      <point x="399.6" y="-492"/>
      <point x="518.3" y="-367"/>
      <point x="595.5" y="-80.4" type="curve" smooth="yes"/>
      <point x="912.5" y="1114.4" type="line"/>
      <point x="633.1" y="1114.4" type="line"/>
      <point x="499" y="432.4" type="line" smooth="yes"/>
      <point x="487.5" y="377.6"/>
      <point x="479.5" y="307.8"/>
      <point x="473.3" y="250.6" type="curve"/>
      <point x="467.4" y="250.6" type="line"/>
      <point x="458.1" y="344.8"/>
      <point x="440.7" y="446"/>
      <point x="431" y="485" type="curve" smooth="yes"/>
      <point x="275.4" y="1114.4" type="line"/>
      <point x="-0.5" y="1114.4" type="line"/>
      <point x="330.7" y="-18.3" type="line"/>
      <point x="322.7" y="-50.5"/>
      <point x="318.6" y="-64.9"/>
      <point x="312.1" y="-88" type="curve" smooth="yes"/>
      <point x="277" y="-201"/>
      <point x="232.2" y="-263.7"/>
      <point x="132.1" y="-263.7" type="curve" smooth="yes"/>
      <point x="108.7" y="-263.7"/>
      <point x="71.9" y="-260.1"/>
      <point x="42.8" y="-252.5" type="curve"/>
      <point x="42.8" y="-475" type="line"/>
      <point x="83.9" y="-486"/>
      <point x="132.2" y="-492"/>
    </contour>
  </outline>
</glyph>
<glyph name="logicalnot" format="2">
  <advance width="918"/>
  <unicode hex="00AC"/>
  <note>
logicalnot
</note>
  <outline>
    <contour>
      <point x="615.7" y="250" type="line"/>
      <point x="810.4" y="250" type="line"/>
      <point x="810.4" y="825.6" type="line"/>
      <point x="105.9" y="825.6" type="line"/>
      <point x="105.9" y="617.6" type="line"/>
      <point x="615.7" y="617.6" type="line"/>
    </contour>
  </outline>
</glyph>
<glyph name="degree" format="2">
  <advance width="831"/>
  <unicode hex="00B0"/>
  <note>
degree
</note>
  <outline>
    <contour>
      <point x="415.6" y="805.2" type="curve" smooth="yes"/>
      <point x="604.6" y="805.2"/>
      <point x="756.6" y="954.8"/>
      <point x="756.6" y="1142.7" type="curve" smooth="yes"/>
      <point x="756.6" y="1329.9"/>
      <point x="600.4" y="1483"/>
      <point x="415.6" y="1483" type="curve" smooth="yes"/>
      <point x="226.6" y="1483"/>
      <point x="76" y="1327.8"/>
      <point x="76" y="1142.7" type="curve" smooth="yes"/>
      <point x="76" y="954.5"/>
      <point x="224.4" y="805.2"/>
    </contour>
    <contour>
      <point x="415.6" y="981" type="curve" smooth="yes"/>
      <point x="328.3" y="981"/>
      <point x="252.1" y="1053.9"/>
      <point x="252.1" y="1142.7" type="curve" smooth="yes"/>
      <point x="252.1" y="1231.6"/>
      <point x="327.1" y="1306.5"/>
      <point x="415.6" y="1306.5" type="curve" smooth="yes"/>
      <point x="504.5" y="1306.5"/>
      <point x="578.4" y="1233.5"/>
      <point x="578.4" y="1142.7" type="curve" smooth="yes"/>
      <point x="578.4" y="1053.7"/>
      <point x="503.3" y="981"/>
    </contour>
  </outline>
</glyph>
<glyph name="onesuperior" format="2">
  <advance width="688"/>
  <unicode hex="00B9"/>
  <note>
onesuperior
</note>
  <outline>
    <contour>
      <point x="304" y="586" type="line"/>
      <point x="501" y="586" type="line"/>
      <point x="501" y="1462" type="line"/>
      <point x="340" y="1462" type="line"/>
      <point x="66" y="1235" type="line"/>
      <point x="159" y="1118" type="line"/>
      <point x="211" y="1162"/>
      <point x="242" y="1189"/>
      <point x="264" y="1210" type="curve" smooth="yes"/>
      <point x="279" y="1223"/>
      <point x="294" y="1238"/>
      <point x="312" y="1255" type="curve"/>
      <point x="308" y="1210"/>
      <point x="304" y="1117"/>
      <point x="304" y="1047" type="curve" smooth="yes"/>
    </contour>
  </outline>
</glyph>
<glyph name="idotless" format="2">
  <advance width="496"/>
  <unicode hex="0131"/>
  <note>
dotlessi
</note>
  <anchor x="248.3" y="0" name="bottom"/>
  <anchor x="437" y="10" name="ogonek"/>
  <anchor x="248.3" y="1114.4" name="top"/>
  <outline>
    <contour>
      <point x="381.4" y="1114.4" type="line"/>
      <point x="114.9" y="1114.4" type="line"/>
      <point x="114.9" y="0" type="line"/>
      <point x="381.4" y="0" type="line"/>
    </contour>
  </outline>
</glyph>
<glyph name="Tbar" format="2">
  <advance width="885"/>
  <unicode hex="0166"/>
  <note>
Tbar
</note>
  <outline>
    <contour>
      <point x="118.5" y="844.2" type="line"/>
      <point x="118.5" y="610.4" type="line"/>
      <point x="307.1" y="610.4" type="line"/>
      <point x="307.1" y="0" type="line"/>
      <point x="578" y="0" type="line"/>
      <point x="578" y="610.4" type="line"/>
      <point x="764.1" y="610.4" type="line"/>
      <point x="764.1" y="844.2" type="line"/>
      <point x="578" y="844.2" type="line"/>
      <point x="578" y="1223.2" type="line"/>
      <point x="857.8" y="1223.2" type="line"/>
      <point x="857.8" y="1462" type="line"/>
      <point x="27.3" y="1462" type="line"/>
      <point x="27.3" y="1223.2" type="line"/>
      <point x="307.1" y="1223.2" type="line"/>
      <point x="307.1" y="844.2" type="line"/>
    </contour>
  </outline>
</glyph>
<glyph name="florin" format="2">
  <advance width="948"/>
  <unicode hex="0192"/>
  <note>
florin
</note>
  <outline>
    <contour>
      <point x="224.5" y="-492" type="curve" smooth="yes"/>
      <point x="451.3" y="-492"/>
      <point x="579.9" y="-364.1"/>
      <point x="579.9" y="-121.5" type="curve" smooth="yes"/>
      <point x="579.9" y="816.6" type="line"/>
      <point x="798.6" y="816.6" type="line"/>
      <point x="798.6" y="1030.1" type="line"/>
      <point x="579.9" y="1030.1" type="line"/>
      <point x="579.9" y="1105.1" type="line" smooth="yes"/>
      <point x="579.9" y="1143"/>
      <point x="583.2" y="1174.2"/>
      <point x="594.3" y="1197.7" type="curve" smooth="yes"/>
      <point x="609.9" y="1235.9"/>
      <point x="636.7" y="1260.1"/>
      <point x="689.3" y="1260.1" type="curve" smooth="yes"/>
      <point x="732.1" y="1260.1"/>
      <point x="776.1" y="1249.8"/>
      <point x="826.5" y="1230.6" type="curve"/>
      <point x="894.8" y="1437.7" type="line"/>
      <point x="823.7" y="1467.9"/>
      <point x="743.4" y="1483"/>
      <point x="650" y="1483" type="curve" smooth="yes"/>
      <point x="402.7" y="1483"/>
      <point x="298.7" y="1366.4"/>
      <point x="298.7" y="1115.5" type="curve" smooth="yes"/>
      <point x="298.7" y="1029.7" type="line"/>
      <point x="133.5" y="952.2" type="line"/>
      <point x="133.5" y="816.6" type="line"/>
      <point x="298.7" y="816.6" type="line"/>
      <point x="298.7" y="-85.4" type="line" smooth="yes"/>
      <point x="298.7" y="-206.6"/>
      <point x="258.1" y="-263.7"/>
      <point x="168.8" y="-263.7" type="curve" smooth="yes"/>
      <point x="125.3" y="-263.7"/>
      <point x="87.4" y="-257.7"/>
      <point x="48.5" y="-245.7" type="curve"/>
      <point x="48.5" y="-468.5" type="line"/>
      <point x="103.2" y="-483.1"/>
      <point x="158.5" y="-492"/>
    </contour>
  </outline>
</glyph>
<glyph name="uhorn" format="2">
  <advance width="1311"/>
  <unicode hex="01B0"/>
  <note>
uhorn
</note>
  <anchor x="563" y="0" name="bottom"/>
  <anchor x="513" y="1114" name="top"/>
  <outline>
    <contour>
      <point x="398" y="-20" type="curve" smooth="yes"/>
      <point x="531" y="-20"/>
      <point x="619" y="46"/>
      <point x="667" y="143" type="curve"/>
      <point x="682" y="143" type="line"/>
      <point x="714" y="0" type="line"/>
      <point x="926" y="0" type="line"/>
      <point x="926" y="823" type="line"/>
      <point x="1001" y="833"/>
      <point x="1083" y="853"/>
      <point x="1147" y="894" type="curve" smooth="yes"/>
      <point x="1267" y="954"/>
      <point x="1335" y="1073"/>
      <point x="1373" y="1260" type="curve"/>
      <point x="1359" y="1281" type="line"/>
      <point x="1076" y="1281" type="line"/>
      <point x="1075" y="1196"/>
      <point x="1061" y="1128"/>
      <point x="1032" y="1079" type="curve" smooth="yes"/>
      <point x="1008" y="1036"/>
      <point x="972" y="1008"/>
      <point x="926" y="995" type="curve"/>
      <point x="926" y="1114" type="line"/>
      <point x="659" y="1114" type="line"/>
      <point x="659" y="580" type="line" smooth="yes"/>
      <point x="659" y="386"/>
      <point x="636" y="204"/>
      <point x="495" y="204" type="curve" smooth="yes"/>
      <point x="406" y="204"/>
      <point x="370" y="286"/>
      <point x="370" y="451" type="curve" smooth="yes"/>
      <point x="370" y="1114" type="line"/>
      <point x="102" y="1114" type="line"/>
      <point x="102" y="387" type="line" smooth="yes"/>
      <point x="102" y="116"/>
      <point x="208" y="-20"/>
    </contour>
  </outline>
</glyph>
<glyph name="acutecomb" format="2">
  <unicode hex="0301"/>
  <note>
acutecomb
</note>
  <anchor x="-75" y="1148" name="_top"/>
  <anchor x="0" y="1569" name="top"/>
  <outline>
    <contour>
      <point x="-245" y="1241" type="line"/>
      <point x="-58" y="1241" type="line"/>
      <point x="60" y="1337"/>
      <point x="213" y="1491"/>
      <point x="245" y="1547" type="curve"/>
      <point x="245" y="1569" type="line"/>
      <point x="-73" y="1569" type="line"/>
      <point x="-103" y="1502"/>
      <point x="-188" y="1340"/>
      <point x="-245" y="1268" type="curve"/>
    </contour>
  </outline>
</glyph>
<glyph name="circumflexcomb" format="2">
  <unicode hex="0302"/>
  <note>
circumflex
</note>
  <anchor x="569" y="1114" name="_top"/>
  <anchor x="569" y="1569" name="top"/>
  <outline>
    <contour>
      <point x="213" y="1241" type="line"/>
      <point x="380" y="1241" type="line"/>
      <point x="410" y="1264"/>
      <point x="450" y="1298"/>
      <point x="482" y="1329" type="curve" smooth="yes"/>
      <point x="505" y="1352"/>
      <point x="529" y="1376"/>
      <point x="567" y="1419" type="curve"/>
      <point x="616" y="1366"/>
      <point x="640" y="1340"/>
      <point x="651" y="1331" type="curve" smooth="yes"/>
      <point x="677" y="1305"/>
      <point x="689" y="1294"/>
      <point x="755" y="1241" type="curve"/>
      <point x="923" y="1241" type="line"/>
      <point x="923" y="1268" type="line"/>
      <point x="809" y="1412"/>
      <point x="737" y="1513"/>
      <point x="707" y="1569" type="curve"/>
      <point x="429" y="1569" type="line"/>
      <point x="403" y="1518"/>
      <point x="331" y="1419"/>
      <point x="213" y="1268" type="curve"/>
    </contour>
  </outline>
</glyph>
<glyph name="brevecomb" format="2">
  <unicode hex="0306"/>
  <note>
breve
</note>
  <anchor x="563" y="1114" name="_top"/>
  <anchor x="563" y="1567" name="top"/>
  <outline>
    <contour>
      <point x="560" y="1240" type="curve" smooth="yes"/>
      <point x="745" y="1240"/>
      <point x="858" y="1359"/>
      <point x="873" y="1567" type="curve"/>
      <point x="712" y="1567" type="line"/>
      <point x="699" y="1476"/>
      <point x="665" y="1442"/>
      <point x="562" y="1442" type="curve" smooth="yes"/>
      <point x="451" y="1442"/>
      <point x="422" y="1472"/>
      <point x="413" y="1567" type="curve"/>
      <point x="253" y="1567" type="line"/>
      <point x="260" y="1360"/>
      <point x="364" y="1240"/>
    </contour>
  </outline>
</glyph>
<glyph name="hookabovecomb" format="2">
  <unicode hex="0309"/>
  <note>
hookabovecomb
</note>
  <anchor x="-1" y="1114" name="_top"/>
  <anchor x="-1" y="1696" name="top"/>
  <outline>
    <contour>
      <point x="-116" y="1217" type="line"/>
      <point x="47" y="1217" type="line"/>
      <point x="57" y="1296" type="line"/>
      <point x="166" y="1323"/>
      <point x="220" y="1386"/>
      <point x="220" y="1487" type="curve" smooth="yes"/>
      <point x="220" y="1627"/>
      <point x="128" y="1696"/>
      <point x="-56" y="1696" type="curve" smooth="yes"/>
      <point x="-130" y="1696"/>
      <point x="-183" y="1689"/>
      <point x="-220" y="1675" type="curve"/>
      <point x="-220" y="1520" type="line"/>
      <point x="-172" y="1533"/>
      <point x="-129" y="1540"/>
      <point x="-89" y="1540" type="curve" smooth="yes"/>
      <point x="-37" y="1540"/>
      <point x="1" y="1518"/>
      <point x="1" y="1470" type="curve" smooth="yes"/>
      <point x="1" y="1419"/>
      <point x="-36" y="1386"/>
      <point x="-136" y="1369" type="curve"/>
    </contour>
  </outline>
</glyph>
<glyph name="dblgravecomb" format="2">
  <unicode hex="030F"/>
  <note>
uni030F
</note>
  <anchor x="0" y="1114" name="_top"/>
  <anchor x="0" y="1569" name="top"/>
  <outline>
    <contour>
      <point x="273" y="1241" type="curve"/>
      <point x="423" y="1241" type="line"/>
      <point x="423" y="1268" type="line"/>
      <point x="368" y="1343"/>
      <point x="294" y="1473"/>
      <point x="249" y="1569" type="curve"/>
      <point x="-34" y="1569" type="line"/>
      <point x="-34" y="1547" type="line"/>
      <point x="4" y="1485"/>
      <point x="170" y="1324"/>
    </contour>
    <contour>
      <point x="-118" y="1241" type="curve"/>
      <point x="32" y="1241" type="line"/>
      <point x="32" y="1268" type="line"/>
      <point x="-9" y="1322"/>
      <point x="-97" y="1468"/>
      <point x="-142" y="1569" type="curve"/>
      <point x="-423" y="1569" type="line"/>
      <point x="-423" y="1547" type="line"/>
      <point x="-385" y="1486"/>
      <point x="-217" y="1320"/>
    </contour>
  </outline>
</glyph>
<glyph name="commaturnedabovecomb" format="2">
  <unicode hex="0312"/>
  <anchor x="301" y="1114" name="_top"/>
  <anchor x="301" y="1569" name="top"/>
  <outline>
    <contour>
      <point x="136" y="1241" type="line"/>
      <point x="399" y="1241" type="line"/>
      <point x="409" y="1319"/>
      <point x="439" y="1455"/>
      <point x="465" y="1542" type="curve"/>
      <point x="465" y="1569" type="line"/>
      <point x="301" y="1569" type="line"/>
      <point x="232" y="1468"/>
      <point x="179" y="1366"/>
      <point x="136" y="1262" type="curve"/>
    </contour>
  </outline>
</glyph>
<glyph name="dotbelowcomb" format="2">
  <unicode hex="0323"/>
  <note>
dotbelowcomb
</note>
  <anchor x="-1" y="0" name="_bottom"/>
  <anchor x="-1" y="-416" name="bottom"/>
  <outline>
    <contour>
      <point x="0" y="-416" type="curve" smooth="yes"/>
      <point x="100" y="-416"/>
      <point x="155" y="-366"/>
      <point x="155" y="-275" type="curve" smooth="yes"/>
      <point x="155" y="-185"/>
      <point x="103" y="-131"/>
      <point x="0" y="-131" type="curve" smooth="yes"/>
      <point x="-102" y="-131"/>
      <point x="-155" y="-179"/>
      <point x="-155" y="-275" type="curve" smooth="yes"/>
      <point x="-155" y="-369"/>
      <point x="-99" y="-416"/>
    </contour>
  </outline>
</glyph>
<glyph name="cedillacomb" format="2">
  <unicode hex="0327"/>
  <note>
cedilla
</note>
  <anchor x="208" y="0" name="_bottom"/>
  <anchor x="208" y="-492" name="bottom"/>
  <outline>
    <contour>
      <point x="129" y="-492" type="curve" smooth="yes"/>
      <point x="327" y="-492"/>
      <point x="419" y="-403"/>
      <point x="419" y="-260" type="curve" smooth="yes"/>
      <point x="419" y="-159"/>
      <point x="354" y="-99"/>
      <point x="263" y="-77" type="curve"/>
      <point x="301" y="0" type="line"/>
      <point x="128" y="0" type="line"/>
      <point x="48" y="-158" type="line"/>
      <point x="152" y="-175"/>
      <point x="206" y="-210"/>
      <point x="206" y="-268" type="curve" smooth="yes"/>
      <point x="206" y="-311"/>
      <point x="178" y="-334"/>
      <point x="118" y="-334" type="curve" smooth="yes"/>
      <point x="78" y="-334"/>
      <point x="38" y="-328"/>
      <point x="-3" y="-317" type="curve"/>
      <point x="-3" y="-470" type="line"/>
      <point x="35" y="-485"/>
      <point x="78" y="-492"/>
    </contour>
  </outline>
</glyph>
<glyph name="ogonekcomb" format="2">
  <unicode hex="0328"/>
  <note>
ogonek
</note>
  <anchor x="412" y="10" name="_ogonek"/>
  <outline>
    <contour>
      <point x="259" y="-483" type="curve" smooth="yes"/>
      <point x="294" y="-483"/>
      <point x="334" y="-478"/>
      <point x="381" y="-467" type="curve"/>
      <point x="381" y="-298" type="line"/>
      <point x="353" y="-308"/>
      <point x="328" y="-313"/>
      <point x="301" y="-313" type="curve" smooth="yes"/>
      <point x="261" y="-313"/>
      <point x="229" y="-288"/>
      <point x="229" y="-229" type="curve" smooth="yes"/>
      <point x="229" y="-164"/>
      <point x="270" y="-87"/>
      <point x="356" y="0" type="curve"/>
      <point x="188" y="0" type="line"/>
      <point x="82" y="-82"/>
      <point x="29" y="-170"/>
      <point x="29" y="-264" type="curve" smooth="yes"/>
      <point x="29" y="-399"/>
      <point x="121" y="-483"/>
    </contour>
  </outline>
</glyph>
<glyph name="gamma" format="2">
  <advance width="915"/>
  <unicode hex="03B3"/>
  <note>
gamma
</note>
  <outline>
    <contour>
      <point x="257.9" y="-492" type="curve"/>
      <point x="523.4" y="-492" type="line"/>
      <point x="526.9" y="-331.3"/>
      <point x="548.1" y="-165.4"/>
      <point x="597.9" y="14.1" type="curve" smooth="yes"/>
      <point x="912.9" y="1114.4" type="line"/>
      <point x="637" y="1114.4" type="line"/>
      <point x="500.1" y="531.5" type="line" smooth="yes"/>
      <point x="481.9" y="453.8"/>
      <point x="470.7" y="376.6"/>
      <point x="461.5" y="263.9" type="curve"/>
      <point x="453.5" y="263.9" type="line"/>
      <point x="438.8" y="437.5"/>
      <point x="429.1" y="474.3"/>
      <point x="397" y="613.6" type="curve" smooth="yes"/>
      <point x="278.9" y="1114.4" type="line"/>
      <point x="1.6" y="1114.4" type="line"/>
      <point x="325.8" y="-15.7" type="line"/>
      <point x="283.1" y="-195"/>
      <point x="257.9" y="-379.2"/>
    </contour>
  </outline>
</glyph>
<glyph name="eta" format="2">
  <advance width="1038"/>
  <unicode hex="03B7"/>
  <note>
eta
</note>
  <anchor x="518.3" y="1114.4" name="top"/>
  <outline>
    <contour>
      <point x="667.9" y="-492" type="line"/>
      <point x="936.2" y="-492" type="line"/>
      <point x="936.2" y="726.9" type="line" smooth="yes"/>
      <point x="936.2" y="993.4"/>
      <point x="838.9" y="1135.4"/>
      <point x="626.8" y="1135.4" type="curve" smooth="yes"/>
      <point x="520.7" y="1135.4"/>
      <point x="420.7" y="1077.3"/>
      <point x="372.9" y="971.1" type="curve"/>
      <point x="356.2" y="971.1" type="line"/>
      <point x="323.7" y="1114.4" type="line"/>
      <point x="112.8" y="1114.4" type="line"/>
      <point x="112.8" y="0" type="line"/>
      <point x="379.3" y="0" type="line"/>
      <point x="379.3" y="534.4" type="line" smooth="yes"/>
      <point x="379.3" y="670.5"/>
      <point x="391.5" y="767"/>
      <point x="419.3" y="824.1" type="curve" smooth="yes"/>
      <point x="446.8" y="881.3"/>
      <point x="485" y="908.8"/>
      <point x="547.8" y="908.8" type="curve" smooth="yes"/>
      <point x="632.4" y="908.8"/>
      <point x="667.9" y="822.3"/>
      <point x="667.9" y="664.7" type="curve" smooth="yes"/>
    </contour>
  </outline>
</glyph>
<glyph name="nu" format="2">
  <advance width="946"/>
  <unicode hex="03BD"/>
  <note>
nu
</note>
  <outline>
    <contour>
      <point x="292.9" y="0" type="line"/>
      <point x="552.4" y="0" type="line"/>
      <point x="789.9" y="311.1"/>
      <point x="893.5" y="637.3"/>
      <point x="893.5" y="1114.4" type="curve"/>
      <point x="630.5" y="1114.4" type="line"/>
      <point x="630.5" y="697"/>
      <point x="579.6" y="463"/>
      <point x="458.9" y="250.4" type="curve"/>
      <point x="451.3" y="250.4" type="line"/>
      <point x="439.4" y="357.1"/>
      <point x="429.4" y="416.4"/>
      <point x="411.8" y="495.9" type="curve" smooth="yes"/>
      <point x="275.4" y="1114.4" type="line"/>
      <point x="-0.5" y="1114.4" type="line"/>
    </contour>
  </outline>
</glyph>
<glyph name="omicron" format="2">
  <advance width="1012"/>
  <unicode hex="03BF"/>
  <note>
omicron
</note>
  <anchor x="505.5" y="1114.4" name="top"/>
  <outline>
    <contour>
      <point x="506.7" y="-20" type="curve" smooth="yes"/>
      <point x="772.8" y="-20"/>
      <point x="937.3" y="198.1"/>
      <point x="937.3" y="555.6" type="curve" smooth="yes"/>
      <point x="937.3" y="911.8"/>
      <point x="773.8" y="1135.4"/>
      <point x="504.4" y="1135.4" type="curve" smooth="yes"/>
      <point x="234.5" y="1135.4"/>
      <point x="73.7" y="912.3"/>
      <point x="73.7" y="565.8" type="curve" smooth="yes"/>
      <point x="73.7" y="359.3"/>
      <point x="130.4" y="180.8"/>
      <point x="244.7" y="76.9" type="curve" smooth="yes"/>
      <point x="312.4" y="15.2"/>
      <point x="399.6" y="-20"/>
    </contour>
    <contour>
      <point x="505.2" y="206.5" type="curve" smooth="yes"/>
      <point x="365.1" y="206.5"/>
      <point x="346.3" y="380.4"/>
      <point x="346.3" y="550.5" type="curve" smooth="yes"/>
      <point x="346.3" y="739.8"/>
      <point x="369.1" y="906.8"/>
      <point x="505.6" y="906.8" type="curve" smooth="yes"/>
      <point x="641.9" y="906.8"/>
      <point x="666.1" y="748.5"/>
      <point x="666.1" y="557.2" type="curve" smooth="yes"/>
      <point x="666.1" y="382.9"/>
      <point x="635.5" y="206.5"/>
    </contour>
  </outline>
</glyph>
<glyph name="sigma" format="2">
  <advance width="1055"/>
  <unicode hex="03C3"/>
  <note>
sigma
</note>
  <outline>
    <contour>
      <point x="492.9" y="-20" type="curve" smooth="yes"/>
      <point x="581.5" y="-20"/>
      <point x="657.5" y="3"/>
      <point x="722.1" y="49" type="curve" smooth="yes"/>
      <point x="852.6" y="142.2"/>
      <point x="922.1" y="316.2"/>
      <point x="922.1" y="512.3" type="curve" smooth="yes"/>
      <point x="922.1" y="674.3"/>
      <point x="875.2" y="799.8"/>
      <point x="777.5" y="904.5" type="curve"/>
      <point x="1015.5" y="904.5" type="line"/>
      <point x="1015.5" y="1114.4" type="line"/>
      <point x="529.7" y="1114.4" type="line" smooth="yes"/>
      <point x="224.1" y="1114.4"/>
      <point x="73.6" y="904"/>
      <point x="73.6" y="546.5" type="curve" smooth="yes"/>
      <point x="73.6" y="173.3"/>
      <point x="239.9" y="-20"/>
    </contour>
    <contour>
      <point x="496.3" y="207.4" type="curve" smooth="yes"/>
      <point x="450" y="207.4"/>
      <point x="411.3" y="232.1"/>
      <point x="384.8" y="292.3" type="curve" smooth="yes"/>
      <point x="359.4" y="347.6"/>
      <point x="346.2" y="427.6"/>
      <point x="346.2" y="553.2" type="curve" smooth="yes"/>
      <point x="346.2" y="681.5"/>
      <point x="360.9" y="792.5"/>
      <point x="404.9" y="850.3" type="curve" smooth="yes"/>
      <point x="435.7" y="890.6"/>
      <point x="478.8" y="904.5"/>
      <point x="527.7" y="904.5" type="curve" smooth="yes"/>
      <point x="575.3" y="904.5" type="line"/>
      <point x="596.2" y="864.4"/>
      <point x="612.4" y="824"/>
      <point x="623.6" y="779.8" type="curve" smooth="yes"/>
      <point x="641.3" y="711.7"/>
      <point x="649.1" y="635.7"/>
      <point x="649.1" y="540.3" type="curve" smooth="yes"/>
      <point x="649.1" y="416.6"/>
      <point x="634.6" y="323"/>
      <point x="603.5" y="273.2" type="curve" smooth="yes"/>
      <point x="579.3" y="227.8"/>
      <point x="537.4" y="207.4"/>
    </contour>
  </outline>
</glyph>
<glyph name="piSymbol" format="2">
  <advance width="1579"/>
  <unicode hex="03D6"/>
  <note>
omega1
</note>
  <outline>
    <contour>
      <point x="529" y="-20" type="curve" smooth="yes"/>
      <point x="650" y="-20"/>
      <point x="738" y="37"/>
      <point x="782" y="182" type="curve"/>
      <point x="794" y="182" type="line"/>
      <point x="831" y="61"/>
      <point x="905" y="-20"/>
      <point x="1047" y="-20" type="curve" smooth="yes"/>
      <point x="1147" y="-20"/>
      <point x="1229" y="25"/>
      <point x="1281" y="100" type="curve" smooth="yes"/>
      <point x="1353" y="196"/>
      <point x="1388" y="361"/>
      <point x="1388" y="536" type="curve" smooth="yes"/>
      <point x="1388" y="669"/>
      <point x="1367" y="781"/>
      <point x="1332" y="899" type="curve"/>
      <point x="1541" y="899" type="line"/>
      <point x="1541" y="1114" type="line"/>
      <point x="171" y="1114" type="line"/>
      <point x="35" y="1017" type="line"/>
      <point x="35" y="899" type="line"/>
      <point x="243" y="899" type="line"/>
      <point x="208" y="784"/>
      <point x="187" y="673"/>
      <point x="187" y="535" type="curve" smooth="yes"/>
      <point x="187" y="398"/>
      <point x="206" y="283"/>
      <point x="244" y="190" type="curve" smooth="yes"/>
      <point x="301" y="54"/>
      <point x="394" y="-20"/>
    </contour>
    <contour>
      <point x="562" y="201" type="curve" smooth="yes"/>
      <point x="523" y="201"/>
      <point x="500" y="232"/>
      <point x="484" y="282" type="curve" smooth="yes"/>
      <point x="466" y="339"/>
      <point x="456" y="425"/>
      <point x="456" y="536" type="curve" smooth="yes"/>
      <point x="456" y="666"/>
      <point x="468" y="761"/>
      <point x="503" y="899" type="curve"/>
      <point x="1074" y="899" type="line"/>
      <point x="1103" y="784"/>
      <point x="1119" y="677"/>
      <point x="1119" y="537" type="curve" smooth="yes"/>
      <point x="1119" y="421"/>
      <point x="1108" y="330"/>
      <point x="1088" y="274" type="curve" smooth="yes"/>
      <point x="1070" y="225"/>
      <point x="1047" y="201"/>
      <point x="1013" y="201" type="curve" smooth="yes"/>
      <point x="982" y="201"/>
      <point x="955" y="221"/>
      <point x="940" y="260" type="curve" smooth="yes"/>
      <point x="925" y="299"/>
      <point x="919" y="362"/>
      <point x="919" y="444" type="curve" smooth="yes"/>
      <point x="919" y="598" type="line"/>
      <point x="658" y="598" type="line"/>
      <point x="658" y="444" type="line" smooth="yes"/>
      <point x="658" y="361"/>
      <point x="651" y="299"/>
      <point x="636" y="260" type="curve" smooth="yes"/>
      <point x="621" y="221"/>
      <point x="594" y="201"/>
    </contour>
  </outline>
</glyph>
<glyph name="Be-cy" format="2">
  <advance width="997"/>
  <unicode hex="0411"/>
  <note>
afii10018
</note>
  <outline>
    <contour>
      <point x="128.5" y="0" type="line"/>
      <point x="497.9" y="0" type="line" smooth="yes"/>
      <point x="779.7" y="0"/>
      <point x="936.3" y="170.8"/>
      <point x="936.3" y="461.1" type="curve" smooth="yes"/>
      <point x="936.3" y="748.6"/>
      <point x="784.9" y="890.7"/>
      <point x="487.5" y="890.7" type="curve" smooth="yes"/>
      <point x="400.8" y="890.7" type="line"/>
      <point x="400.8" y="1225.2" type="line"/>
      <point x="822.7" y="1225.2" type="line"/>
      <point x="822.7" y="1462" type="line"/>
      <point x="128.5" y="1462" type="line"/>
    </contour>
    <contour>
      <point x="400.8" y="235.6" type="line"/>
      <point x="400.8" y="653" type="line"/>
      <point x="467.7" y="653" type="line" smooth="yes"/>
      <point x="609.3" y="653"/>
      <point x="661.7" y="594.9"/>
      <point x="661.7" y="452.7" type="curve" smooth="yes"/>
      <point x="661.7" y="310.1"/>
      <point x="603.9" y="235.6"/>
      <point x="485.1" y="235.6" type="curve" smooth="yes"/>
    </contour>
  </outline>
</glyph>
<glyph name="Ereversed-cy" format="2">
  <advance width="948"/>
  <unicode hex="042D"/>
  <note>
afii10047
</note>
  <anchor x="474.1" y="1462" name="top"/>
  <outline>
    <contour>
      <point x="340.3" y="-20" type="curve" smooth="yes"/>
      <point x="678" y="-20"/>
      <point x="864" y="262"/>
      <point x="864.1" y="739.5" type="curve" smooth="yes"/>
      <point x="864" y="1304"/>
      <point x="611.6868029190757" y="1485.0"/>
      <point x="354.4" y="1485" type="curve" smooth="yes"/>
      <point x="225.7" y="1485"/>
      <point x="133.3" y="1446.5"/>
      <point x="37" y="1383.9" type="curve"/>
      <point x="128.9" y="1162.7" type="line"/>
      <point x="205.9" y="1218.3"/>
      <point x="278.4" y="1245.4"/>
      <point x="344.6" y="1245.4" type="curve" smooth="yes"/>
      <point x="487.2" y="1245.4"/>
      <point x="563" y="1111.6"/>
      <point x="579.9" y="859.9" type="curve"/>
      <point x="199.3" y="859.9" type="line"/>
      <point x="199.3" y="624.5" type="line"/>
      <point x="581.9" y="624.5" type="line"/>
      <point x="566.4" y="356"/>
      <point x="484.3" y="218.9"/>
      <point x="322.7" y="218.9" type="curve" smooth="yes"/>
      <point x="245.2" y="218.9"/>
      <point x="154.8" y="243.4"/>
      <point x="71.5" y="292.8" type="curve"/>
      <point x="71.5" y="51.5" type="line"/>
      <point x="141.9" y="3"/>
      <point x="240" y="-20"/>
    </contour>
  </outline>
</glyph>
<glyph name="Ia-cy" format="2">
  <advance width="1024"/>
  <unicode hex="042F"/>
  <note>
afii10049
</note>
  <anchor x="511" y="1462" name="top"/>
  <outline>
    <contour>
      <point x="4" y="0" type="line"/>
      <point x="296" y="0" type="line"/>
      <point x="523" y="569" type="line"/>
      <point x="623" y="569" type="line"/>
      <point x="623" y="0" type="line"/>
      <point x="894" y="0" type="line"/>
      <point x="894" y="1462" type="line"/>
      <point x="542" y="1462" type="line" smooth="yes"/>
      <point x="245" y="1462"/>
      <point x="97" y="1313"/>
      <point x="97" y="1013" type="curve" smooth="yes"/>
      <point x="97" y="838"/>
      <point x="153" y="719"/>
      <point x="282" y="639" type="curve"/>
    </contour>
    <contour>
      <point x="552" y="803" type="line" smooth="yes"/>
      <point x="423" y="803"/>
      <point x="374" y="876"/>
      <point x="374" y="1020" type="curve" smooth="yes"/>
      <point x="374" y="1169"/>
      <point x="432" y="1227"/>
      <point x="556" y="1227" type="curve" smooth="yes"/>
      <point x="623" y="1227" type="line"/>
      <point x="623" y="803" type="line"/>
    </contour>
  </outline>
</glyph>
<glyph name="tshe-cy" format="2">
  <advance width="1038"/>
  <unicode hex="045B"/>
  <note>
afii10108
</note>
  <outline>
    <contour>
      <point x="112" y="0" type="line"/>
      <point x="378" y="0" type="line"/>
      <point x="378" y="506" type="line" smooth="yes"/>
      <point x="378" y="628"/>
      <point x="392" y="717"/>
      <point x="418" y="774" type="curve" smooth="yes"/>
      <point x="443" y="830"/>
      <point x="484" y="858"/>
      <point x="546" y="858" type="curve" smooth="yes"/>
      <point x="627" y="858"/>
      <point x="667" y="780"/>
      <point x="667" y="627" type="curve" smooth="yes"/>
      <point x="667" y="0" type="line"/>
      <point x="935" y="0" type="line"/>
      <point x="935" y="696" type="line" smooth="yes"/>
      <point x="935" y="951"/>
      <point x="834" y="1085"/>
      <point x="617" y="1085" type="curve" smooth="yes"/>
      <point x="522" y="1085"/>
      <point x="426" y="1025"/>
      <point x="380" y="919" type="curve"/>
      <point x="366" y="919" type="line"/>
      <point x="373" y="949"/>
      <point x="378" y="980"/>
      <point x="378" y="1010" type="curve" smooth="yes"/>
      <point x="378" y="1204" type="line"/>
      <point x="624" y="1204" type="line"/>
      <point x="624" y="1391" type="line"/>
      <point x="378" y="1391" type="line"/>
      <point x="378" y="1556" type="line"/>
      <point x="112" y="1556" type="line"/>
      <point x="112" y="1391" type="line"/>
      <point x="-12" y="1391" type="line"/>
      <point x="-12" y="1204" type="line"/>
      <point x="112" y="1204" type="line"/>
    </contour>
  </outline>
</glyph>
<glyph name="dzhe-cy" format="2">
  <advance width="1059"/>
  <unicode hex="045F"/>
  <note>
afii10193
</note>
  <outline>
    <contour>
      <point x="397.9" y="-397.7" type="line"/>
      <point x="662" y="-397.7" type="line"/>
      <point x="662" y="0" type="line"/>
      <point x="945.6" y="0" type="line"/>
      <point x="945.6" y="1114.4" type="line"/>
      <point x="678" y="1114.4" type="line"/>
      <point x="678" y="214.6" type="line"/>
      <point x="379.3" y="214.6" type="line"/>
      <point x="379.3" y="1114.4" type="line"/>
      <point x="112.8" y="1114.4" type="line"/>
      <point x="112.8" y="0" type="line"/>
      <point x="397.9" y="0" type="line"/>
    </contour>
  </outline>
</glyph>
<glyph name="eiotified-cy" format="2">
  <advance width="1309"/>
  <unicode hex="0465"/>
  <note>
uni0465
</note>
  <outline>
    <contour>
      <point x="957.3" y="-20" type="curve" smooth="yes"/>
      <point x="1049.7" y="-20"/>
      <point x="1140" y="4.1"/>
      <point x="1227.2" y="50.9" type="curve"/>
      <point x="1227.2" y="272.1" type="line"/>
      <point x="1143.5" y="227.2"/>
      <point x="1067.2" y="194.6"/>
      <point x="970.9" y="194.6" type="curve" smooth="yes"/>
      <point x="855.1" y="194.6"/>
      <point x="798.5" y="284"/>
      <point x="783.6" y="467.3" type="curve"/>
      <point x="1108" y="467.3" type="line"/>
      <point x="1108" y="680" type="line"/>
      <point x="786.4" y="680" type="line"/>
      <point x="805" y="840.4"/>
      <point x="867.9" y="921.5"/>
      <point x="975" y="921.5" type="curve" smooth="yes"/>
      <point x="1042.6" y="921.5"/>
      <point x="1104.8" y="895.1"/>
      <point x="1180.7" y="857.8" type="curve"/>
      <point x="1254.9" y="1062.1" type="line"/>
      <point x="1165.9" y="1111.2"/>
      <point x="1071.2" y="1135.4"/>
      <point x="968.4" y="1135.4" type="curve" smooth="yes"/>
      <point x="712.1" y="1135.4"/>
      <point x="552.9" y="984.7"/>
      <point x="516.2" y="680" type="curve"/>
      <point x="379.3" y="680" type="line"/>
      <point x="379.3" y="1114.4" type="line"/>
      <point x="112.8" y="1114.4" type="line"/>
      <point x="112.8" y="0" type="line"/>
      <point x="379.3" y="0" type="line"/>
      <point x="379.3" y="467.3" type="line"/>
      <point x="512" y="467.3" type="line"/>
      <point x="532.5" y="137.9"/>
      <point x="677.2" y="-20"/>
    </contour>
  </outline>
</glyph>
<glyph name="yusbigiotified-cy" format="2">
  <advance width="1442"/>
  <unicode hex="046D"/>
  <note>
uni046D
</note>
  <outline>
    <contour>
      <point x="112.8" y="0" type="line"/>
      <point x="354.1" y="0" type="line"/>
      <point x="354.1" y="467.3" type="line"/>
      <point x="562.5" y="467.3" type="line"/>
      <point x="550.3" y="429.7"/>
      <point x="538.5" y="394.3"/>
      <point x="525.7" y="348.5" type="curve" smooth="yes"/>
      <point x="436.1" y="0" type="line"/>
      <point x="645.1" y="0" type="line"/>
      <point x="724.4" y="338.1" type="line" smooth="yes"/>
      <point x="735.3" y="380.6"/>
      <point x="749.5" y="430.3"/>
      <point x="766.1" y="457.1" type="curve" smooth="yes"/>
      <point x="780.2" y="486.1"/>
      <point x="796.1" y="501.6"/>
      <point x="812.9" y="501.6" type="curve" smooth="yes"/>
      <point x="821.3" y="501.6" type="line"/>
      <point x="821.3" y="0" type="line"/>
      <point x="1037.8" y="0" type="line"/>
      <point x="1037.8" y="501.6" type="line"/>
      <point x="1047.5" y="501.6" type="line" smooth="yes"/>
      <point x="1062.9" y="501.6"/>
      <point x="1083" y="490"/>
      <point x="1094" y="463.5" type="curve" smooth="yes"/>
      <point x="1107.7" y="446.9"/>
      <point x="1121.5" y="395.2"/>
      <point x="1135.2" y="338.9" type="curve" smooth="yes"/>
      <point x="1212.9" y="0" type="line"/>
      <point x="1419.4" y="0" type="line"/>
      <point x="1333" y="343.6" type="line" smooth="yes"/>
      <point x="1308.1" y="442.5"/>
      <point x="1283.1" y="497.2"/>
      <point x="1249.9" y="543.8" type="curve" smooth="yes"/>
      <point x="1217.1" y="591.5"/>
      <point x="1177.7" y="622.6"/>
      <point x="1123.3" y="642.9" type="curve"/>
      <point x="1350.5" y="1011.9" type="line"/>
      <point x="1350.5" y="1114.4" type="line"/>
      <point x="512.8" y="1114.4" type="line"/>
      <point x="512.8" y="1011.9" type="line"/>
      <point x="715.5" y="680" type="line"/>
      <point x="354.1" y="680" type="line"/>
      <point x="354.1" y="1114.4" type="line"/>
      <point x="112.8" y="1114.4" type="line"/>
    </contour>
    <contour>
      <point x="929.9" y="674.3" type="line"/>
      <point x="782" y="936" type="line"/>
      <point x="1076.1" y="936" type="line"/>
    </contour>
  </outline>
</glyph>
<glyph name="uni047A" format="2">
  <advance width="1309"/>
  <unicode hex="047A"/>
  <note>
uni047A
</note>
  <outline>
    <contour>
      <point x="655" y="-125" type="curve" smooth="yes"/>
      <point x="727" y="-125"/>
      <point x="774" y="-87"/>
      <point x="791" y="-8" type="curve"/>
      <point x="1071" y="49"/>
      <point x="1225" y="318"/>
      <point x="1225" y="733" type="curve" smooth="yes"/>
      <point x="1225" y="1148"/>
      <point x="1070" y="1418"/>
      <point x="786" y="1472" type="curve"/>
      <point x="770" y="1561"/>
      <point x="723" y="1585"/>
      <point x="655" y="1585" type="curve" smooth="yes"/>
      <point x="587" y="1585"/>
      <point x="541" y="1561"/>
      <point x="524" y="1472" type="curve"/>
      <point x="238" y="1420"/>
      <point x="84" y="1155"/>
      <point x="84" y="735" type="curve" smooth="yes"/>
      <point x="84" y="307"/>
      <point x="241" y="45"/>
      <point x="522" y="-8" type="curve"/>
      <point x="537" y="-87"/>
      <point x="580" y="-125"/>
    </contour>
    <contour>
      <point x="540" y="246" type="curve"/>
      <point x="421" y="306"/>
      <point x="361" y="467"/>
      <point x="361" y="733" type="curve" smooth="yes"/>
      <point x="361" y="995"/>
      <point x="420" y="1157"/>
      <point x="537" y="1217" type="curve"/>
      <point x="555" y="1172"/>
      <point x="594" y="1149"/>
      <point x="655" y="1149" type="curve" smooth="yes"/>
      <point x="712" y="1149"/>
      <point x="751" y="1172"/>
      <point x="775" y="1217" type="curve"/>
      <point x="896" y="1154"/>
      <point x="946" y="989"/>
      <point x="946" y="733" type="curve" smooth="yes"/>
      <point x="946" y="468"/>
      <point x="887" y="306"/>
      <point x="770" y="246" type="curve"/>
      <point x="750" y="297"/>
      <point x="710" y="311"/>
      <point x="655" y="311" type="curve" smooth="yes"/>
      <point x="598" y="311"/>
      <point x="559" y="297"/>
    </contour>
  </outline>
</glyph>
<glyph name="uni047F" format="2">
  <advance width="1462"/>
  <unicode hex="047F"/>
  <note>
uni047F
</note>
  <outline>
    <contour>
      <point x="370.5" y="1211.5" type="line"/>
      <point x="403.5" y="1211.5" type="line"/>
      <point x="451" y="1304.7" type="line"/>
      <point x="639.6" y="1304.7" type="line"/>
      <point x="689.1" y="1211.5" type="line"/>
      <point x="720.7" y="1211.5" type="line"/>
      <point x="770.9" y="1304.7" type="line"/>
      <point x="956.3" y="1304.7" type="line"/>
      <point x="1006.6" y="1211.5" type="line"/>
      <point x="1038.9" y="1211.5" type="line"/>
      <point x="1118.9" y="1374" type="line"/>
      <point x="1118.9" y="1462.3" type="line"/>
      <point x="291.6" y="1462.3" type="line"/>
      <point x="291.6" y="1374" type="line"/>
    </contour>
    <component base="omega-cy"/>
  </outline>
</glyph>
<glyph name="thousand-cy" format="2">
  <advance width="1227"/>
  <unicode hex="0482"/>
  <note>
uni0482
</note>
  <outline>
    <contour>
      <point x="325.9" y="-5.9" type="line"/>
      <point x="505.3" y="306.9" type="line"/>
      <point x="791" y="143.3" type="line"/>
      <point x="861.6" y="266" type="line"/>
      <point x="578.5" y="431.8" type="line"/>
      <point x="777.5" y="777.8" type="line"/>
      <point x="1060.9" y="614.1" type="line"/>
      <point x="1134.7" y="736.7" type="line"/>
      <point x="848.3" y="900.6" type="line"/>
      <point x="1029.9" y="1216.7" type="line"/>
      <point x="903.4" y="1290.5" type="line"/>
      <point x="720.9" y="977.8" type="line"/>
      <point x="436.4" y="1141.5" type="line"/>
      <point x="365.6" y="1016.7" type="line"/>
      <point x="648.7" y="851.6" type="line"/>
      <point x="450.7" y="506" type="line"/>
      <point x="163.9" y="669.7" type="line"/>
      <point x="93.8" y="547.1" type="line"/>
      <point x="377.4" y="382.6" type="line"/>
      <point x="196.6" y="67.9" type="line"/>
    </contour>
  </outline>
</glyph>
<glyph name="psilipneumatacomb-cy" format="2">
  <unicode hex="0486"/>
  <note>
uni0486
</note>
  <outline>
    <contour>
      <point x="400" y="1223" type="line"/>
      <point x="562" y="1235"/>
      <point x="696" y="1334"/>
      <point x="696" y="1465" type="curve" smooth="yes"/>
      <point x="696" y="1550"/>
      <point x="643" y="1618"/>
      <point x="537" y="1618" type="curve" smooth="yes"/>
      <point x="459" y="1618"/>
      <point x="401" y="1582"/>
      <point x="401" y="1516" type="curve" smooth="yes"/>
      <point x="401" y="1481"/>
      <point x="416" y="1465"/>
      <point x="460" y="1451" type="curve" smooth="yes"/>
      <point x="491" y="1441"/>
      <point x="517" y="1431"/>
      <point x="517" y="1406" type="curve" smooth="yes"/>
      <point x="517" y="1375"/>
      <point x="480" y="1330"/>
      <point x="400" y="1308" type="curve"/>
    </contour>
  </outline>
</glyph>
<glyph name="Ghestroke-cy" format="2">
  <advance width="831"/>
  <unicode hex="0492"/>
  <note>
uni0492
</note>
  <anchor x="437" y="0" name="cyrillicbighook"/>
  <outline>
    <contour>
      <point x="140.4" y="0" type="line"/>
      <point x="412" y="0" type="line"/>
      <point x="412" y="603.7" type="line"/>
      <point x="648.9" y="603.7" type="line"/>
      <point x="648.9" y="841.4" type="line"/>
      <point x="412" y="841.4" type="line"/>
      <point x="412" y="1226.6" type="line"/>
      <point x="794.6" y="1226.6" type="line"/>
      <point x="794.6" y="1462" type="line"/>
      <point x="140.4" y="1462" type="line"/>
      <point x="140.4" y="841.4" type="line"/>
      <point x="14.1" y="841.4" type="line"/>
      <point x="14.1" y="603.7" type="line"/>
      <point x="140.4" y="603.7" type="line"/>
    </contour>
  </outline>
</glyph>
<glyph name="endescender-cy" format="2">
  <advance width="1112"/>
  <unicode hex="04A3"/>
  <note>
uni04A3
</note>
  <outline>
    <contour>
      <point x="822.6" y="-397.7" type="line"/>
      <point x="1087.4" y="-397.7" type="line"/>
      <point x="1087.4" y="209" type="line"/>
      <point x="948.4" y="209" type="line"/>
      <point x="948.4" y="1114.4" type="line"/>
      <point x="680.1" y="1114.4" type="line"/>
      <point x="680.1" y="680" type="line"/>
      <point x="379.3" y="680" type="line"/>
      <point x="379.3" y="1114.4" type="line"/>
      <point x="112.8" y="1114.4" type="line"/>
      <point x="112.8" y="0" type="line"/>
      <point x="379.3" y="0" type="line"/>
      <point x="379.3" y="467.3" type="line"/>
      <point x="680.1" y="467.3" type="line"/>
      <point x="680.1" y="0" type="line"/>
      <point x="822.6" y="0" type="line"/>
    </contour>
  </outline>
</glyph>
<glyph name="cheverticalstroke-cy" format="2">
  <advance width="1036"/>
  <unicode hex="04B9"/>
  <note>
uni04B9
</note>
  <outline>
    <contour>
      <point x="657.3" y="0" type="line"/>
      <point x="925.6" y="0" type="line"/>
      <point x="925.6" y="1114.4" type="line"/>
      <point x="657.3" y="1114.4" type="line"/>
      <point x="657.3" y="632.9" type="line"/>
      <point x="628.5" y="605.2"/>
      <point x="605.3" y="589.4"/>
      <point x="580" y="579.8" type="curve"/>
      <point x="580" y="815.3" type="line"/>
      <point x="455.3" y="815.3" type="line"/>
      <point x="455.3" y="538.9" type="line"/>
      <point x="475.4" y="554.8" type="line"/>
      <point x="450.3" y="554.8" type="line"/>
      <point x="394.8" y="564.6"/>
      <point x="368.9" y="609.2"/>
      <point x="368.9" y="700" type="curve" smooth="yes"/>
      <point x="368.9" y="1114.4" type="line"/>
      <point x="102" y="1114.4" type="line"/>
      <point x="102" y="678.6" type="line" smooth="yes"/>
      <point x="102" y="457.5"/>
      <point x="198.4" y="343.6"/>
      <point x="380.3" y="343.6" type="curve" smooth="yes"/>
      <point x="413" y="343.6"/>
      <point x="438" y="347.1"/>
      <point x="455.3" y="352" type="curve"/>
      <point x="455.3" y="131.1" type="line"/>
      <point x="580" y="131.1" type="line"/>
      <point x="580" y="399.4" type="line"/>
      <point x="607.5" y="410.5"/>
      <point x="632.1" y="426.9"/>
      <point x="657.3" y="451.1" type="curve"/>
    </contour>
  </outline>
</glyph>
<glyph name="Shha-cy" format="2">
  <advance width="1145"/>
  <unicode hex="04BA"/>
  <note>
uni04BA
</note>
  <anchor x="1125.2" y="0" name="bottomright"/>
  <outline>
    <contour>
      <point x="128.5" y="0" type="line"/>
      <point x="400.8" y="0" type="line"/>
      <point x="400.8" y="666.7" type="line"/>
      <point x="486.6" y="718.1"/>
      <point x="543.7" y="740.8"/>
      <point x="629.2" y="740.8" type="curve" smooth="yes"/>
      <point x="719.7" y="740.8"/>
      <point x="751.2" y="671.4"/>
      <point x="751.2" y="541.1" type="curve" smooth="yes"/>
      <point x="751.2" y="0" type="line"/>
      <point x="1022.1" y="0" type="line"/>
      <point x="1022.1" y="600.1" type="line" smooth="yes"/>
      <point x="1022.1" y="843"/>
      <point x="898.1" y="981.1"/>
      <point x="676.7" y="981.1" type="curve" smooth="yes"/>
      <point x="585.3" y="981.1"/>
      <point x="492.9" y="952.4"/>
      <point x="400.8" y="897.6" type="curve"/>
      <point x="400.8" y="1462" type="line"/>
      <point x="128.5" y="1462" type="line"/>
    </contour>
  </outline>
</glyph>
<glyph name="eltail-cy" format="2">
  <advance width="1106"/>
  <unicode hex="04C6"/>
  <note>
uni04C6
</note>
  <outline>
    <contour>
      <point x="670.1" y="-397.7" type="line"/>
      <point x="940.2" y="-397.7" type="line"/>
      <point x="1080.7" y="208.8" type="line"/>
      <point x="920.1" y="208.8" type="line"/>
      <point x="920.1" y="1114.4" type="line"/>
      <point x="264.7" y="1114.4" type="line"/>
      <point x="244.5" y="817.9"/>
      <point x="235" y="717.5"/>
      <point x="222.8" y="617.9" type="curve" smooth="yes"/>
      <point x="214.8" y="547"/>
      <point x="202.5" y="473.1"/>
      <point x="190.7" y="427.8" type="curve" smooth="yes"/>
      <point x="158.3" y="271.2"/>
      <point x="117.2" y="213"/>
      <point x="58.6" y="213" type="curve" smooth="yes"/>
      <point x="44.3" y="213"/>
      <point x="19" y="215.7"/>
      <point x="0.5" y="222.5" type="curve"/>
      <point x="0.5" y="4.3" type="line"/>
      <point x="31.3" y="-11.9"/>
      <point x="78.5" y="-18.4"/>
      <point x="117.6" y="-18.4" type="curve" smooth="yes"/>
      <point x="283.7" y="-18.4"/>
      <point x="379.5" y="88.1"/>
      <point x="439.6" y="360.4" type="curve" smooth="yes"/>
      <point x="469.6" y="494.1"/>
      <point x="489.6" y="667.3"/>
      <point x="503.9" y="899.1" type="curve"/>
      <point x="652.5" y="899.1" type="line"/>
      <point x="652.5" y="0" type="line"/>
      <point x="805.3" y="0" type="line"/>
    </contour>
  </outline>
</glyph>
<glyph name="Schwa-cy" format="2">
  <advance width="1196"/>
  <unicode hex="04D8"/>
  <note>
uni04D8
</note>
  <anchor x="598.2" y="1462" name="top"/>
  <outline>
    <contour>
      <point x="600.1" y="-20" type="curve" smooth="yes"/>
      <point x="938.4" y="-20"/>
      <point x="1134.8" y="255.6"/>
      <point x="1134.8" y="729" type="curve" smooth="yes"/>
      <point x="1134.8" y="1201.7"/>
      <point x="929.2" y="1485"/>
      <point x="572.6" y="1485" type="curve" smooth="yes"/>
      <point x="413.6" y="1485"/>
      <point x="287.3" y="1449.7"/>
      <point x="138.7" y="1343" type="curve"/>
      <point x="138.7" y="1072.8" type="line"/>
      <point x="280.2" y="1187.7"/>
      <point x="423.4" y="1244.8"/>
      <point x="564.9" y="1244.8" type="curve" smooth="yes"/>
      <point x="731.7" y="1244.8"/>
      <point x="840.8" y="1098.9"/>
      <point x="857.6" y="827.1" type="curve"/>
      <point x="76" y="827.1" type="line"/>
      <point x="76" y="756.3" type="line" smooth="yes"/>
      <point x="76" y="236.5"/>
      <point x="254.9" y="-20"/>
    </contour>
    <contour>
      <point x="599.9" y="221" type="curve" smooth="yes"/>
      <point x="436.8" y="221"/>
      <point x="355" y="343"/>
      <point x="351.5" y="587.5" type="curve"/>
      <point x="854.1" y="587.5" type="line"/>
      <point x="841.9" y="361.2"/>
      <point x="747.1" y="221"/>
    </contour>
  </outline>
</glyph>
<glyph name="schwa-cy" format="2">
  <advance width="940"/>
  <unicode hex="04D9"/>
  <note>
afii10846
</note>
  <anchor x="469.9" y="1114.4" name="top"/>
  <outline>
    <contour>
      <point x="463.3" y="-20" type="curve" smooth="yes"/>
      <point x="720.1" y="-20"/>
      <point x="876.4" y="196"/>
      <point x="876.4" y="565" type="curve" smooth="yes"/>
      <point x="876.4" y="923.8"/>
      <point x="709.3" y="1135.4"/>
      <point x="426.3" y="1135.4" type="curve" smooth="yes"/>
      <point x="307.2" y="1135.4"/>
      <point x="204.1" y="1109.2"/>
      <point x="119.1" y="1057.5" type="curve"/>
      <point x="119.1" y="837.9" type="line"/>
      <point x="210.8" y="894.1"/>
      <point x="300" y="922"/>
      <point x="384.5" y="922" type="curve" smooth="yes"/>
      <point x="521.9" y="922"/>
      <point x="601.6" y="823.6"/>
      <point x="605.1" y="624.9" type="curve"/>
      <point x="72.2" y="624.9" type="line"/>
      <point x="72.2" y="483.7" type="line" smooth="yes"/>
      <point x="72.2" y="166.8"/>
      <point x="218.9" y="-20"/>
    </contour>
    <contour>
      <point x="463" y="183.5" type="curve" smooth="yes"/>
      <point x="381.7" y="183.5"/>
      <point x="332.8" y="269.2"/>
      <point x="330" y="431.8" type="curve"/>
      <point x="599.6" y="431.8" type="line"/>
      <point x="592.2" y="266.6"/>
      <point x="546.4" y="183.5"/>
    </contour>
  </outline>
</glyph>
<glyph name="hastroke-cy" format="2">
  <advance width="889"/>
  <unicode hex="04FF"/>
  <note>
uni04FF
</note>
  <outline>
    <contour>
      <point x="14" y="0" type="line"/>
      <point x="290.5" y="0" type="line"/>
      <point x="438.1" y="355.8" type="line"/>
      <point x="596.3" y="0" type="line"/>
      <point x="874.1" y="0" type="line"/>
      <point x="637.5" y="458.9" type="line"/>
      <point x="787.1" y="458.9" type="line"/>
      <point x="787.1" y="671.8" type="line"/>
      <point x="633.7" y="671.8" type="line"/>
      <point x="862.1" y="1114.4" type="line"/>
      <point x="588.1" y="1114.4" type="line"/>
      <point x="451.3" y="774.3" type="line"/>
      <point x="302.9" y="1114.4" type="line"/>
      <point x="26.3" y="1114.4" type="line"/>
      <point x="253.6" y="671.8" type="line"/>
      <point x="98" y="671.8" type="line"/>
      <point x="98" y="458.9" type="line"/>
      <point x="249.2" y="458.9" type="line"/>
    </contour>
  </outline>
</glyph>
<glyph name="komizje-cy" format="2">
  <advance width="1278"/>
  <unicode hex="0505"/>
  <note>
uni0505
</note>
  <outline>
    <contour>
      <point x="822" y="-20" type="curve" smooth="yes"/>
      <point x="1094" y="-20"/>
      <point x="1220" y="105"/>
      <point x="1220" y="381" type="curve" smooth="yes"/>
      <point x="1220" y="700" type="line"/>
      <point x="952" y="700" type="line"/>
      <point x="952" y="438" type="line" smooth="yes"/>
      <point x="952" y="373"/>
      <point x="946" y="307"/>
      <point x="929" y="268" type="curve" smooth="yes"/>
      <point x="914" y="227"/>
      <point x="882" y="214"/>
      <point x="844" y="214" type="curve" smooth="yes"/>
      <point x="809" y="214"/>
      <point x="785" y="225"/>
      <point x="769" y="247" type="curve" smooth="yes"/>
      <point x="753" y="269"/>
      <point x="745" y="303"/>
      <point x="742" y="349" type="curve" smooth="yes"/>
      <point x="729" y="466"/>
      <point x="701" y="543"/>
      <point x="536" y="585" type="curve"/>
      <point x="536" y="594" type="line"/>
      <point x="658" y="637"/>
      <point x="718" y="722"/>
      <point x="718" y="839" type="curve" smooth="yes"/>
      <point x="718" y="1011"/>
      <point x="598" y="1135"/>
      <point x="346" y="1135" type="curve" smooth="yes"/>
      <point x="208" y="1135"/>
      <point x="90" y="1100"/>
      <point x="2" y="1044" type="curve"/>
      <point x="99" y="854" type="line"/>
      <point x="180" y="900"/>
      <point x="257" y="924"/>
      <point x="334" y="924" type="curve" smooth="yes"/>
      <point x="427" y="924"/>
      <point x="476" y="886"/>
      <point x="476" y="804" type="curve" smooth="yes"/>
      <point x="476" y="712"/>
      <point x="404" y="680"/>
      <point x="282" y="680" type="curve" smooth="yes"/>
      <point x="156" y="680" type="line"/>
      <point x="156" y="481" type="line"/>
      <point x="290" y="481" type="line" smooth="yes"/>
      <point x="446" y="481"/>
      <point x="475" y="416"/>
      <point x="478" y="281" type="curve" smooth="yes"/>
      <point x="479" y="201"/>
      <point x="488" y="107"/>
      <point x="568" y="46" type="curve" smooth="yes"/>
      <point x="620" y="5"/>
      <point x="700" y="-20"/>
    </contour>
  </outline>
</glyph>
<glyph name="Komidzje-cy" format="2">
  <advance width="1014"/>
  <unicode hex="0506"/>
  <note>
uni0506
</note>
  <outline>
    <contour>
      <point x="719.5" y="-418.7" type="line"/>
      <point x="983.2" y="-418.7" type="line"/>
      <point x="983.2" y="229.1" type="line"/>
      <point x="819" y="229.1" type="line"/>
      <point x="819" y="423.9" type="line" smooth="yes"/>
      <point x="819" y="615.3"/>
      <point x="714.1" y="728.9"/>
      <point x="517.5" y="760.3" type="curve"/>
      <point x="517.5" y="768.3" type="line"/>
      <point x="692.9" y="825.1"/>
      <point x="787.8" y="954.5"/>
      <point x="787.8" y="1133.6" type="curve" smooth="yes"/>
      <point x="787.8" y="1351.6"/>
      <point x="635.9" y="1483"/>
      <point x="393.4" y="1483" type="curve" smooth="yes"/>
      <point x="243.9" y="1483"/>
      <point x="115.7" y="1433.9"/>
      <point x="7.7" y="1334.6" type="curve"/>
      <point x="132.5" y="1132.9" type="line"/>
      <point x="228.9" y="1218"/>
      <point x="302.7" y="1250.4"/>
      <point x="374.9" y="1250.4" type="curve" smooth="yes"/>
      <point x="474" y="1250.4"/>
      <point x="523.7" y="1185.7"/>
      <point x="523.7" y="1072.7" type="curve" smooth="yes"/>
      <point x="523.7" y="927.9"/>
      <point x="443.3" y="851.9"/>
      <point x="283.3" y="851.9" type="curve" smooth="yes"/>
      <point x="137.4" y="851.9" type="line"/>
      <point x="137.4" y="648.7" type="line"/>
      <point x="287.1" y="648.7" type="line" smooth="yes"/>
      <point x="460" y="648.7"/>
      <point x="553" y="572.2"/>
      <point x="553" y="424" type="curve" smooth="yes"/>
      <point x="553" y="0" type="line"/>
      <point x="719.5" y="0" type="line"/>
    </contour>
  </outline>
</glyph>
<glyph name="patah-hb" format="2">
  <unicode hex="05B7"/>
  <note>
afii57798
</note>
  <anchor x="1" y="-99" name="_bottom"/>
  <outline>
    <contour>
      <point x="-197" y="-234" type="line"/>
      <point x="197" y="-234" type="line"/>
      <point x="197" y="-119" type="line"/>
      <point x="-197" y="-119" type="line"/>
    </contour>
  </outline>
</glyph>
<glyph name="qamats-hb" format="2">
  <unicode hex="05B8"/>
  <note>
afii57797
</note>
  <anchor x="0" y="-118" name="_bottom"/>
  <outline>
    <contour>
      <point x="-56" y="-457" type="line"/>
      <point x="56" y="-457" type="line"/>
      <point x="56" y="-254" type="line"/>
      <point x="191" y="-254" type="line"/>
      <point x="191" y="-138" type="line"/>
      <point x="-191" y="-138" type="line"/>
      <point x="-191" y="-254" type="line"/>
      <point x="-56" y="-254" type="line"/>
    </contour>
  </outline>
</glyph>
<glyph name="holamhaser-hb" format="2">
  <unicode hex="05BA"/>
  <note>
uni05BA
</note>
  <anchor x="116" y="1390" name="_topleft"/>
  <outline>
    <contour>
      <point x="-2" y="1410" type="curve" smooth="yes"/>
      <point x="58" y="1410"/>
      <point x="96" y="1444"/>
      <point x="96" y="1496" type="curve" smooth="yes"/>
      <point x="96" y="1548"/>
      <point x="58" y="1583"/>
      <point x="-1" y="1583" type="curve" smooth="yes"/>
      <point x="-59" y="1583"/>
      <point x="-96" y="1552"/>
      <point x="-96" y="1496" type="curve" smooth="yes"/>
      <point x="-96" y="1441"/>
      <point x="-61" y="1410"/>
    </contour>
  </outline>
</glyph>
<glyph name="shindot-hb" format="2">
  <unicode hex="05C1"/>
  <note>
afii57804
</note>
  <anchor x="1" y="1114" name="_topright"/>
  <outline>
    <contour>
      <point x="-3" y="1410" type="curve" smooth="yes"/>
      <point x="57" y="1410"/>
      <point x="95" y="1444"/>
      <point x="95" y="1496" type="curve" smooth="yes"/>
      <point x="95" y="1548"/>
      <point x="57" y="1583"/>
      <point x="-1" y="1583" type="curve" smooth="yes"/>
      <point x="-60" y="1583"/>
      <point x="-95" y="1552"/>
      <point x="-95" y="1496" type="curve" smooth="yes"/>
      <point x="-95" y="1441"/>
      <point x="-62" y="1410"/>
    </contour>
  </outline>
</glyph>
<glyph name="alef-hb" format="2">
  <advance width="1024"/>
  <unicode hex="05D0"/>
  <note>
afii57664
</note>
  <anchor x="512" y="-208" name="bottom"/>
  <anchor x="20" y="0" name="bottomleft"/>
  <anchor x="460" y="191" name="center"/>
  <anchor x="512" y="1114" name="top"/>
  <anchor x="20" y="1114" name="topleft"/>
  <outline>
    <contour>
      <point x="86" y="0" type="line"/>
      <point x="350" y="0" type="line"/>
      <point x="350" y="464" type="line" smooth="yes"/>
      <point x="350" y="499"/>
      <point x="354" y="528"/>
      <point x="361" y="553" type="curve" smooth="yes"/>
      <point x="368" y="577"/>
      <point x="379" y="597"/>
      <point x="394" y="612" type="curve"/>
      <point x="651" y="0" type="line"/>
      <point x="959" y="0" type="line"/>
      <point x="741" y="462" type="line"/>
      <point x="820" y="490"/>
      <point x="882" y="541"/>
      <point x="908" y="582" type="curve" smooth="yes"/>
      <point x="949" y="639"/>
      <point x="969" y="728"/>
      <point x="969" y="828" type="curve" smooth="yes"/>
      <point x="969" y="1290" type="line"/>
      <point x="704" y="1290" type="line"/>
      <point x="704" y="825" type="line" smooth="yes"/>
      <point x="704" y="791"/>
      <point x="699" y="758"/>
      <point x="690" y="730" type="curve" smooth="yes"/>
      <point x="679" y="701"/>
      <point x="665" y="678"/>
      <point x="645" y="664" type="curve"/>
      <point x="367" y="1290" type="line"/>
      <point x="61" y="1290" type="line"/>
      <point x="294" y="819" type="line"/>
      <point x="214" y="785"/>
      <point x="148" y="734"/>
      <point x="120" y="659" type="curve" smooth="yes"/>
      <point x="94" y="590"/>
      <point x="86" y="551"/>
      <point x="86" y="461" type="curve" smooth="yes"/>
    </contour>
  </outline>
</glyph>
<glyph name="dalet-hb" format="2">
  <advance width="844"/>
  <unicode hex="05D3"/>
  <note>
afii57667
</note>
  <anchor x="421" y="0" name="bottom"/>
  <anchor x="20" y="0" name="bottomleft"/>
  <anchor x="306" y="636" name="center"/>
  <anchor x="421" y="1114" name="top"/>
  <anchor x="20" y="1114" name="topleft"/>
  <outline>
    <contour>
      <point x="407" y="0" type="line"/>
      <point x="674" y="0" type="line"/>
      <point x="674" y="819" type="line" smooth="yes"/>
      <point x="674" y="907"/>
      <point x="694" y="974"/>
      <point x="732" y="1022" type="curve" smooth="yes"/>
      <point x="756" y="1052"/>
      <point x="788" y="1073"/>
      <point x="825" y="1087" type="curve"/>
      <point x="825" y="1290" type="line"/>
      <point x="27" y="1290" type="line"/>
      <point x="27" y="1075" type="line"/>
      <point x="558" y="1075" type="line"/>
      <point x="521" y="1057"/>
      <point x="492" y="1033"/>
      <point x="460" y="996" type="curve" smooth="yes"/>
      <point x="431" y="963"/>
      <point x="407" y="895"/>
      <point x="407" y="827" type="curve" smooth="yes"/>
    </contour>
  </outline>
</glyph>
<glyph name="het-hb" format="2">
  <advance width="1038"/>
  <unicode hex="05D7"/>
  <note>
afii57671
</note>
  <anchor x="520" y="0" name="bottom"/>
  <anchor x="20" y="0" name="bottomleft"/>
  <anchor x="520" y="557" name="center"/>
  <anchor x="520" y="1114" name="top"/>
  <anchor x="20" y="1114" name="topleft"/>
  <outline>
    <contour>
      <point x="113" y="0" type="line"/>
      <point x="380" y="0" type="line"/>
      <point x="380" y="1084" type="line"/>
      <point x="422" y="1090"/>
      <point x="454" y="1093"/>
      <point x="485" y="1093" type="curve" smooth="yes"/>
      <point x="555" y="1093"/>
      <point x="598" y="1079"/>
      <point x="627" y="1046" type="curve" smooth="yes"/>
      <point x="658" y="1011"/>
      <point x="669" y="950"/>
      <point x="669" y="862" type="curve" smooth="yes"/>
      <point x="669" y="0" type="line"/>
      <point x="936" y="0" type="line"/>
      <point x="936" y="861" type="line" smooth="yes"/>
      <point x="936" y="987"/>
      <point x="926" y="1084"/>
      <point x="886" y="1157" type="curve" smooth="yes"/>
      <point x="873" y="1182"/>
      <point x="856" y="1204"/>
      <point x="834" y="1224" type="curve" smooth="yes"/>
      <point x="768" y="1283"/>
      <point x="672" y="1310"/>
      <point x="510" y="1310" type="curve" smooth="yes"/>
      <point x="442" y="1310"/>
      <point x="362" y="1304"/>
      <point x="279" y="1294" type="curve" smooth="yes"/>
      <point x="225" y="1287"/>
      <point x="169" y="1279"/>
      <point x="113" y="1267" type="curve"/>
    </contour>
  </outline>
</glyph>
<glyph name="lamed-hb" format="2">
  <advance width="823"/>
  <unicode hex="05DC"/>
  <note>
afii57676
</note>
  <anchor x="412" y="0" name="bottom"/>
  <anchor x="20" y="0" name="bottomleft"/>
  <anchor x="249" y="636" name="center"/>
  <anchor x="412" y="1114" name="top"/>
  <anchor x="20" y="1114" name="topleft"/>
  <outline>
    <contour>
      <point x="251" y="0" type="line"/>
      <point x="509" y="0" type="line"/>
      <point x="611" y="496" type="line"/>
      <point x="779" y="1110" type="line"/>
      <point x="779" y="1290" type="line"/>
      <point x="309" y="1290" type="line"/>
      <point x="309" y="1556" type="line"/>
      <point x="43" y="1556" type="line"/>
      <point x="43" y="1075" type="line"/>
      <point x="512" y="1075" type="line"/>
      <point x="353" y="497" type="line"/>
    </contour>
  </outline>
</glyph>
<glyph name="finalmem-hb" format="2">
  <advance width="1038"/>
  <unicode hex="05DD"/>
  <note>
afii57677
</note>
  <anchor x="520" y="0" name="bottom"/>
  <anchor x="20" y="0" name="bottomleft"/>
  <anchor x="520" y="557" name="center"/>
  <anchor x="520" y="1114" name="top"/>
  <anchor x="20" y="1114" name="topleft"/>
  <outline>
    <contour>
      <point x="113" y="0" type="line"/>
      <point x="936" y="0" type="line"/>
      <point x="936" y="861" type="line" smooth="yes"/>
      <point x="936" y="957"/>
      <point x="929" y="1025"/>
      <point x="917" y="1078" type="curve" smooth="yes"/>
      <point x="897" y="1167"/>
      <point x="843" y="1236"/>
      <point x="759" y="1272" type="curve" smooth="yes"/>
      <point x="699" y="1298"/>
      <point x="620" y="1310"/>
      <point x="487" y="1310" type="curve" smooth="yes"/>
      <point x="405" y="1310"/>
      <point x="306" y="1304"/>
      <point x="222" y="1296" type="curve" smooth="yes"/>
      <point x="171" y="1292"/>
      <point x="131" y="1286"/>
      <point x="113" y="1282" type="curve"/>
    </contour>
    <contour>
      <point x="380" y="215" type="line"/>
      <point x="380" y="1089" type="line"/>
      <point x="413" y="1092"/>
      <point x="433" y="1093"/>
      <point x="481" y="1093" type="curve" smooth="yes"/>
      <point x="518" y="1093"/>
      <point x="549" y="1091"/>
      <point x="581" y="1078" type="curve" smooth="yes"/>
      <point x="613" y="1065"/>
      <point x="636" y="1044"/>
      <point x="650" y="1008" type="curve" smooth="yes"/>
      <point x="664" y="974"/>
      <point x="669" y="916"/>
      <point x="669" y="862" type="curve" smooth="yes"/>
      <point x="669" y="215" type="line"/>
    </contour>
  </outline>
</glyph>
<glyph name="pe-hb" format="2">
  <advance width="976"/>
  <unicode hex="05E4"/>
  <note>
afii57684
</note>
  <anchor x="489" y="0" name="bottom"/>
  <anchor x="21" y="0" name="bottomleft"/>
  <anchor x="476" y="858" name="center"/>
  <anchor x="489" y="1114" name="top"/>
  <anchor x="21" y="1114" name="topleft"/>
  <outline>
    <contour>
      <point x="457" y="-20" type="curve" smooth="yes"/>
      <point x="581" y="-20"/>
      <point x="654" y="20"/>
      <point x="702" y="59" type="curve" smooth="yes"/>
      <point x="754" y="102"/>
      <point x="807" y="170"/>
      <point x="842" y="260" type="curve" smooth="yes"/>
      <point x="880" y="356"/>
      <point x="903" y="488"/>
      <point x="903" y="644" type="curve" smooth="yes"/>
      <point x="903" y="807"/>
      <point x="878" y="943"/>
      <point x="843" y="1033" type="curve" smooth="yes"/>
      <point x="807" y="1124"/>
      <point x="750" y="1193"/>
      <point x="701" y="1233" type="curve" smooth="yes"/>
      <point x="649" y="1273"/>
      <point x="570" y="1310"/>
      <point x="467" y="1310" type="curve" smooth="yes"/>
      <point x="365" y="1310"/>
      <point x="263" y="1273"/>
      <point x="185" y="1199" type="curve" smooth="yes"/>
      <point x="98" y="1116"/>
      <point x="54" y="996"/>
      <point x="54" y="856" type="curve" smooth="yes"/>
      <point x="54" y="724"/>
      <point x="92" y="623"/>
      <point x="134" y="568" type="curve" smooth="yes"/>
      <point x="156" y="539"/>
      <point x="190" y="511"/>
      <point x="218" y="494" type="curve" smooth="yes"/>
      <point x="263" y="465"/>
      <point x="341" y="437"/>
      <point x="402" y="433" type="curve" smooth="yes"/>
      <point x="454" y="426" type="line"/>
      <point x="505" y="636" type="line"/>
      <point x="467" y="643" type="line" smooth="yes"/>
      <point x="407" y="652"/>
      <point x="369" y="691"/>
      <point x="352" y="727" type="curve" smooth="yes"/>
      <point x="334" y="758"/>
      <point x="325" y="819"/>
      <point x="325" y="865" type="curve" smooth="yes"/>
      <point x="325" y="928"/>
      <point x="335" y="985"/>
      <point x="362" y="1030" type="curve" smooth="yes"/>
      <point x="384" y="1068"/>
      <point x="422" y="1093"/>
      <point x="471" y="1093" type="curve" smooth="yes"/>
      <point x="515" y="1093"/>
      <point x="554" y="1075"/>
      <point x="586" y="1005" type="curve" smooth="yes"/>
      <point x="598" y="977"/>
      <point x="608" y="943"/>
      <point x="615" y="897" type="curve" smooth="yes"/>
      <point x="627" y="833"/>
      <point x="632" y="748"/>
      <point x="632" y="635" type="curve" smooth="yes"/>
      <point x="632" y="545"/>
      <point x="625" y="454"/>
      <point x="614" y="389" type="curve" smooth="yes"/>
      <point x="608" y="350"/>
      <point x="599" y="316"/>
      <point x="585" y="287" type="curve" smooth="yes"/>
      <point x="559" y="229"/>
      <point x="523" y="197"/>
      <point x="487" y="197" type="curve" smooth="yes"/>
      <point x="387" y="197"/>
      <point x="294" y="209"/>
      <point x="164" y="232" type="curve"/>
      <point x="164" y="8" type="line"/>
      <point x="199" y="1" type="line" smooth="yes"/>
      <point x="243" y="-7"/>
      <point x="377" y="-20"/>
    </contour>
  </outline>
</glyph>
<glyph name="finaltsadi-hb" format="2">
  <advance width="949"/>
  <unicode hex="05E5"/>
  <note>
afii57685
</note>
  <anchor x="475" y="0" name="bottom"/>
  <anchor x="20" y="0" name="bottomleft"/>
  <anchor x="475" y="557" name="center"/>
  <anchor x="475" y="1114" name="top"/>
  <anchor x="20" y="1114" name="topleft"/>
  <outline>
    <contour>
      <point x="201" y="-492" type="line"/>
      <point x="467" y="-492" type="line"/>
      <point x="467" y="435" type="line"/>
      <point x="483" y="435" type="line" smooth="yes"/>
      <point x="688" y="443"/>
      <point x="787" y="504"/>
      <point x="837" y="613" type="curve" smooth="yes"/>
      <point x="864" y="672"/>
      <point x="875" y="733"/>
      <point x="875" y="810" type="curve" smooth="yes"/>
      <point x="875" y="1290" type="line"/>
      <point x="609" y="1290" type="line"/>
      <point x="609" y="807" type="line" smooth="yes"/>
      <point x="609" y="689"/>
      <point x="576" y="640"/>
      <point x="493" y="622" type="curve" smooth="yes"/>
      <point x="484" y="622"/>
      <point x="468" y="622"/>
      <point x="436" y="625" type="curve"/>
      <point x="306" y="1290" type="line"/>
      <point x="12" y="1290" type="line"/>
      <point x="201" y="577" type="line"/>
    </contour>
  </outline>
</glyph>
<glyph name="quotedblleft" format="2">
  <advance width="854"/>
  <unicode hex="201C"/>
  <note>
quotedblleft
</note>
  <outline>
    <contour>
      <point x="469" y="961" type="line"/>
      <point x="733" y="961" type="line"/>
      <point x="756" y="1116"/>
      <point x="790" y="1284"/>
      <point x="834" y="1462" type="curve"/>
      <point x="631" y="1462" type="line"/>
      <point x="576" y="1345"/>
      <point x="497" y="1140"/>
      <point x="455" y="983" type="curve"/>
    </contour>
    <contour>
      <point x="35" y="961" type="line"/>
      <point x="299" y="961" type="line"/>
      <point x="311" y="1057"/>
      <point x="358" y="1295"/>
      <point x="399" y="1462" type="curve"/>
      <point x="197" y="1462" type="line"/>
      <point x="122" y="1302"/>
      <point x="53" y="1112"/>
      <point x="20" y="983" type="curve"/>
    </contour>
  </outline>
</glyph>
<glyph name="exclamdouble" format="2">
  <advance width="1109"/>
  <unicode hex="203C"/>
  <note>
exclamdbl
</note>
  <outline>
    <contour>
      <point x="723" y="471" type="line"/>
      <point x="942" y="471" type="line"/>
      <point x="993" y="1462" type="line"/>
      <point x="674" y="1462" type="line"/>
    </contour>
    <contour>
      <point x="832" y="-27" type="curve" smooth="yes"/>
      <point x="936" y="-27"/>
      <point x="997" y="34"/>
      <point x="997" y="137" type="curve" smooth="yes"/>
      <point x="997" y="242"/>
      <point x="940" y="301"/>
      <point x="832" y="301" type="curve" smooth="yes"/>
      <point x="722" y="301"/>
      <point x="666" y="241"/>
      <point x="666" y="137" type="curve" smooth="yes"/>
      <point x="666" y="34"/>
      <point x="722" y="-27"/>
    </contour>
    <contour>
      <point x="168" y="471" type="line"/>
      <point x="387" y="471" type="line"/>
      <point x="438" y="1462" type="line"/>
      <point x="119" y="1462" type="line"/>
    </contour>
    <contour>
      <point x="276" y="-27" type="curve" smooth="yes"/>
      <point x="381" y="-27"/>
      <point x="442" y="34"/>
      <point x="442" y="137" type="curve" smooth="yes"/>
      <point x="442" y="242"/>
      <point x="386" y="301"/>
      <point x="276" y="301" type="curve" smooth="yes"/>
      <point x="167" y="301"/>
      <point x="111" y="241"/>
      <point x="111" y="137" type="curve" smooth="yes"/>
      <point x="111" y="34"/>
      <point x="167" y="-27"/>
    </contour>
  </outline>
</glyph>
<glyph name="dong" format="2">
  <advance width="1016"/>
  <unicode hex="20AB"/>
  <note>
dong
</note>
  <outline>
    <contour>
      <point x="406.5" y="-20" type="curve" smooth="yes"/>
      <point x="512.5" y="-20"/>
      <point x="596" y="35.2"/>
      <point x="653.1" y="144.9" type="curve"/>
      <point x="664.6" y="144.9" type="line"/>
      <point x="707.1" y="0" type="line"/>
      <point x="904.8" y="0" type="line"/>
      <point x="904.8" y="1203.8" type="line"/>
      <point x="1028.4" y="1203.8" type="line"/>
      <point x="1028.4" y="1391.5" type="line"/>
      <point x="904.8" y="1391.5" type="line"/>
      <point x="904.8" y="1556" type="line"/>
      <point x="639" y="1556" type="line"/>
      <point x="639" y="1391.5" type="line"/>
      <point x="399.4" y="1391.5" type="line"/>
      <point x="399.4" y="1203.8" type="line"/>
      <point x="639" y="1203.8" type="line"/>
      <point x="639" y="1139.7" type="line"/>
      <point x="639.3" y="1099.4"/>
      <point x="644.8" y="996.8"/>
      <point x="650.7" y="922.2" type="curve"/>
      <point x="635" y="922.2" type="line"/>
      <point x="573.9" y="1038.7"/>
      <point x="502.3" y="1085"/>
      <point x="404.6" y="1085" type="curve" smooth="yes"/>
      <point x="194.7" y="1085"/>
      <point x="73.7" y="874"/>
      <point x="73.7" y="529.8" type="curve" smooth="yes"/>
      <point x="73.7" y="181"/>
      <point x="201.1" y="-20"/>
    </contour>
    <contour>
      <point x="491.6" y="205.1" type="curve" smooth="yes"/>
      <point x="440.8" y="205.1"/>
      <point x="402.6" y="233.2"/>
      <point x="380.9" y="284.9" type="curve" smooth="yes"/>
      <point x="355.6" y="337.4"/>
      <point x="346.3" y="425.2"/>
      <point x="346.3" y="524.3" type="curve" smooth="yes"/>
      <point x="346.3" y="742.3"/>
      <point x="394.6" y="856.4"/>
      <point x="485.5" y="856.4" type="curve" smooth="yes"/>
      <point x="541.8" y="856.4"/>
      <point x="582.3" y="834.8"/>
      <point x="602.8" y="787.1" type="curve" smooth="yes"/>
      <point x="626.8" y="741.1"/>
      <point x="636.2" y="662.3"/>
      <point x="636.2" y="549.4" type="curve" smooth="yes"/>
      <point x="636.2" y="519.9" type="line" smooth="yes"/>
      <point x="636.2" y="307.1"/>
      <point x="601.3" y="205.1"/>
    </contour>
    <contour>
      <point x="182.2" y="-324.1" type="line"/>
      <point x="885.5" y="-324.1" type="line"/>
      <point x="885.5" y="-184" type="line"/>
      <point x="182.2" y="-184" type="line"/>
    </contour>
  </outline>
</glyph>
<glyph name="partialdiff" format="2">
  <advance width="1178"/>
  <unicode hex="2202"/>
  <note>
partialdiff
</note>
  <outline>
    <contour>
      <point x="465.8" y="-20" type="curve" smooth="yes"/>
      <point x="586.7" y="-20"/>
      <point x="697" y="18.6"/>
      <point x="794.5" y="98.9" type="curve" smooth="yes"/>
      <point x="988.2" y="258.2"/>
      <point x="1108" y="579.2"/>
      <point x="1108" y="929.7" type="curve" smooth="yes"/>
      <point x="1108" y="1287.4"/>
      <point x="939.6" y="1480.1"/>
      <point x="639.2" y="1480.1" type="curve" smooth="yes"/>
      <point x="530.4" y="1480.1"/>
      <point x="422" y="1453.3"/>
      <point x="315.3" y="1396.9" type="curve"/>
      <point x="315.3" y="1145.3" type="line"/>
      <point x="411" y="1211.3"/>
      <point x="524.6" y="1250.8"/>
      <point x="599.3" y="1250.8" type="curve" smooth="yes"/>
      <point x="734.6" y="1250.8"/>
      <point x="798.7" y="1170.4"/>
      <point x="816.9" y="976.3" type="curve" smooth="yes"/>
      <point x="816.9" y="958.8"/>
      <point x="817.1" y="920.4"/>
      <point x="815" y="901.1" type="curve"/>
      <point x="821.5" y="933.8" type="line"/>
      <point x="764.1" y="999.1"/>
      <point x="688.3" y="1032.4"/>
      <point x="615.8" y="1032.4" type="curve" smooth="yes"/>
      <point x="496.4" y="1032.4"/>
      <point x="410.4" y="1005"/>
      <point x="331.2" y="954.8" type="curve" smooth="yes"/>
      <point x="168.3" y="851.9"/>
      <point x="60.9" y="628"/>
      <point x="60.9" y="394.3" type="curve" smooth="yes"/>
      <point x="60.9" y="121.9"/>
      <point x="200.3" y="-20"/>
    </contour>
    <contour>
      <point x="476.2" y="205.1" type="curve" smooth="yes"/>
      <point x="395.4" y="205.1"/>
      <point x="355.5" y="262"/>
      <point x="355.5" y="365.6" type="curve" smooth="yes"/>
      <point x="355.5" y="450.9"/>
      <point x="370" y="526.8"/>
      <point x="396.2" y="600" type="curve" smooth="yes"/>
      <point x="449.7" y="749.9"/>
      <point x="534.9" y="822.7"/>
      <point x="632.1" y="822.7" type="curve" smooth="yes"/>
      <point x="711.9" y="822.7"/>
      <point x="773.9" y="779"/>
      <point x="795" y="700.3" type="curve"/>
      <point x="779.9" y="605.5"/>
      <point x="760.2" y="527.5"/>
      <point x="729.2" y="454.4" type="curve" smooth="yes"/>
      <point x="662" y="296.3"/>
      <point x="568.3" y="205.1"/>
    </contour>
  </outline>
</glyph>
<glyph name="product" format="2">
  <advance width="1485"/>
  <unicode hex="220F"/>
  <note>
product
</note>
  <outline>
    <contour>
      <point x="155.8" y="-462.6" type="line"/>
      <point x="449.4" y="-462.6" type="line"/>
      <point x="449.4" y="1223.2" type="line"/>
      <point x="1036.2" y="1223.2" type="line"/>
      <point x="1036.2" y="-462.6" type="line"/>
      <point x="1328.4" y="-462.6" type="line"/>
      <point x="1328.4" y="1462" type="line"/>
      <point x="155.8" y="1462" type="line"/>
    </contour>
  </outline>
</glyph>
<glyph name="radical" format="2">
  <advance width="1110"/>
  <unicode hex="221A"/>
  <note>
radical
</note>
  <outline>
    <contour>
      <point x="481" y="-14" type="line"/>
      <point x="653.1" y="-14" type="line"/>
      <point x="1263.8" y="1745.2" type="line"/>
      <point x="1058.5" y="1745.2" type="line"/>
      <point x="565.4" y="344.7" type="line"/>
      <point x="354" y="930" type="line"/>
      <point x="34.9" y="930" type="line"/>
      <point x="34.9" y="731.3" type="line"/>
      <point x="211" y="731.3" type="line"/>
    </contour>
  </outline>
</glyph>
<glyph name="replacementCharacter" format="2">
  <advance width="2032"/>
  <unicode hex="FFFD"/>
  <note>
uniFFFD
</note>
  <outline>
    <contour>
      <point x="1013.6" y="-319" type="line"/>
      <point x="1953.6" y="618" type="line"/>
      <point x="1013.6" y="1556" type="line"/>
      <point x="75.6" y="618" type="line"/>
    </contour>
    <contour>
      <point x="981.2" y="-43" type="curve" smooth="yes"/>
      <point x="889.6" y="-43"/>
      <point x="841.6" y="8"/>
      <point x="841.6" y="93.4" type="curve" smooth="yes"/>
      <point x="841.6" y="179"/>
      <point x="888.7" y="229"/>
      <point x="981.2" y="229" type="curve" smooth="yes"/>
      <point x="1072.3" y="229"/>
      <point x="1121.6" y="177"/>
      <point x="1121.6" y="92.7" type="curve" smooth="yes"/>
      <point x="1121.6" y="9"/>
      <point x="1072" y="-43"/>
    </contour>
    <contour>
      <point x="867.9" y="367" type="line"/>
      <point x="867.9" y="426" type="line" smooth="yes"/>
      <point x="867.9" y="550.9"/>
      <point x="914.3" y="601.6"/>
      <point x="1011.6" y="679.3" type="curve" smooth="yes"/>
      <point x="1094.3" y="743.6"/>
      <point x="1132.6" y="781.2"/>
      <point x="1132.6" y="855.7" type="curve" smooth="yes"/>
      <point x="1132.6" y="926.4"/>
      <point x="1091.6" y="967"/>
      <point x="1009.7" y="967" type="curve" smooth="yes"/>
      <point x="951.8" y="967"/>
      <point x="875.1" y="944.9"/>
      <point x="757.6" y="887" type="curve"/>
      <point x="675.6" y="1065" type="line"/>
      <point x="765.7" y="1117.5"/>
      <point x="893.3" y="1163"/>
      <point x="1021.4" y="1163" type="curve" smooth="yes"/>
      <point x="1233" y="1163"/>
      <point x="1363.6" y="1055.4"/>
      <point x="1363.6" y="881" type="curve" smooth="yes"/>
      <point x="1363.6" y="735.3"/>
      <point x="1301.5" y="668.1"/>
      <point x="1187.6" y="578.7" type="curve" smooth="yes"/>
      <point x="1100.6" y="512.3"/>
      <point x="1078.6" y="481"/>
      <point x="1078.6" y="414" type="curve" smooth="yes"/>
      <point x="1078.6" y="367" type="line"/>
    </contour>
  </outline>
</glyph>
<glyph name=".notdef" format="2">
  <advance width="1192"/>
  <note>
.notdef
</note>
  <outline>
    <contour>
      <point x="174" y="0" type="line"/>
      <point x="1015.8" y="0" type="line"/>
      <point x="1015.8" y="1462" type="line"/>
      <point x="174" y="1462" type="line"/>
    </contour>
    <contour>
      <point x="279" y="104" type="line"/>
      <point x="279" y="1358" type="line"/>
      <point x="910.8" y="1358" type="line"/>
      <point x="910.8" y="104" type="line"/>
    </contour>
  </outline>
</glyph>
<glyph name="dollar.rvrn" format="2">
  <advance width="948"/>
  <note>
dollar
</note>
  <outline>
    <contour>
      <point x="414" y="-119" type="line"/>
      <point x="530" y="-119" type="line"/>
      <point x="530" y="91" type="line"/>
      <point x="750" y="113"/>
      <point x="874" y="245"/>
      <point x="874" y="457" type="curve" smooth="yes"/>
      <point x="874" y="657"/>
      <point x="766" y="743"/>
      <point x="597" y="823" type="curve" smooth="yes"/>
      <point x="531" y="854"/>
      <point x="480" y="875"/>
      <point x="435" y="896" type="curve" smooth="yes"/>
      <point x="341" y="940"/>
      <point x="310" y="970"/>
      <point x="309.5" y="1045.9" type="curve" smooth="yes"/>
      <point x="310" y="1137"/>
      <point x="368" y="1181"/>
      <point x="487" y="1170" type="curve"/>
      <point x="564" y="1173"/>
      <point x="654" y="1148"/>
      <point x="758" y="1098" type="curve"/>
      <point x="838" y="1311" type="line"/>
      <point x="737" y="1362"/>
      <point x="633" y="1391"/>
      <point x="530" y="1397" type="curve"/>
      <point x="530" y="1556" type="line"/>
      <point x="414" y="1556" type="line"/>
      <point x="414" y="1395" type="line"/>
      <point x="198" y="1371"/>
      <point x="74" y="1245"/>
      <point x="74" y="1042" type="curve" smooth="yes"/>
      <point x="74" y="851"/>
      <point x="179" y="751"/>
      <point x="379" y="660" type="curve" smooth="yes"/>
      <point x="399" y="650"/>
      <point x="420" y="640"/>
      <point x="440" y="630" type="curve"/>
      <point x="613" y="560"/>
      <point x="640" y="523"/>
      <point x="640" y="458" type="curve" smooth="yes"/>
      <point x="640" y="358"/>
      <point x="573" y="305"/>
      <point x="428" y="305" type="curve"/>
      <point x="316" y="306"/>
      <point x="186" y="350"/>
      <point x="74" y="416" type="curve"/>
      <point x="74" y="170" type="line"/>
      <point x="174" y="118"/>
      <point x="287" y="90"/>
      <point x="414" y="86" type="curve"/>
    </contour>
  </outline>
</glyph>
<glyph name="five.osf" format="2">
  <advance width="918"/>
  <note>
g904
</note>
  <outline>
    <contour>
      <point x="398.5" y="-343.4" type="curve" smooth="yes"/>
      <point x="684.1" y="-343.4"/>
      <point x="837.6" y="-165.6"/>
      <point x="837.6" y="165.2" type="curve" smooth="yes"/>
      <point x="837.6" y="266"/>
      <point x="820.3" y="352.1"/>
      <point x="787.7" y="421.2" type="curve" smooth="yes"/>
      <point x="729.7" y="543"/>
      <point x="623.2" y="610.2"/>
      <point x="477.5" y="610.2" type="curve" smooth="yes"/>
      <point x="433.2" y="610.2"/>
      <point x="393.5" y="603"/>
      <point x="349.7" y="588.9" type="curve"/>
      <point x="394.9" y="588.9" type="line"/>
      <point x="413" y="876" type="line"/>
      <point x="761.2" y="876" type="line"/>
      <point x="761.2" y="1138.6" type="line"/>
      <point x="140.9" y="1138.6" type="line"/>
      <point x="104.3" y="393.3" type="line"/>
      <point x="209" y="304" type="line"/>
      <point x="299.3" y="346"/>
      <point x="343.1" y="360.4"/>
      <point x="384" y="360.4" type="curve" smooth="yes"/>
      <point x="477.7" y="360.4"/>
      <point x="529" y="287.3"/>
      <point x="529" y="138.8" type="curve" smooth="yes"/>
      <point x="529" y="-16.1"/>
      <point x="492.3" y="-93.7"/>
      <point x="390.8" y="-93.7" type="curve" smooth="yes"/>
      <point x="300.6" y="-93.7"/>
      <point x="154.4" y="-46.1"/>
      <point x="85.1" y="1.5" type="curve"/>
      <point x="85.1" y="-265.3" type="line"/>
      <point x="154.7" y="-306.7"/>
      <point x="290.2" y="-343.4"/>
    </contour>
  </outline>
</glyph>
<glyph name="four.numr" format="2">
  <advance width="688.2"/>
  <note>
foursuperior
</note>
  <outline>
    <contour>
      <point x="364.6" y="586" type="line"/>
      <point x="561.2" y="586" type="line"/>
      <point x="561.2" y="744.6" type="line"/>
      <point x="671.7" y="744.6" type="line"/>
      <point x="671.7" y="905.7" type="line"/>
      <point x="561.2" y="905.7" type="line"/>
      <point x="561.2" y="1468" type="line"/>
      <point x="367.1" y="1468" type="line"/>
      <point x="20.1" y="891.5" type="line"/>
      <point x="20.1" y="744.6" type="line"/>
      <point x="364.6" y="744.6" type="line"/>
    </contour>
    <contour>
      <point x="177.8" y="905.7" type="line"/>
      <point x="218" y="972"/>
      <point x="258.5" y="1038"/>
      <point x="298.2" y="1106.2" type="curve" smooth="yes"/>
      <point x="313.8" y="1135.2"/>
      <point x="353" y="1218.1"/>
      <point x="368.6" y="1261.8" type="curve"/>
      <point x="365.6" y="1199.7"/>
      <point x="364.6" y="1137.1"/>
      <point x="364.6" y="1075.7" type="curve" smooth="yes"/>
      <point x="364.6" y="905.7" type="line"/>
    </contour>
  </outline>
</glyph>
<glyph name="g891" format="2">
  <note>
g891
</note>
  <anchor x="-703" y="1124" name="_top"/>
  <outline>
    <contour>
      <point x="-703" y="1240" type="curve" smooth="yes"/>
      <point x="-494" y="1240"/>
      <point x="-376" y="1354"/>
      <point x="-361" y="1565" type="curve"/>
      <point x="-504" y="1565" type="line"/>
      <point x="-516" y="1452"/>
      <point x="-597" y="1403"/>
      <point x="-705" y="1403" type="curve" smooth="yes"/>
      <point x="-816" y="1403"/>
      <point x="-896" y="1455"/>
      <point x="-908" y="1565" type="curve"/>
      <point x="-1051" y="1565" type="line"/>
      <point x="-1036" y="1360"/>
      <point x="-912" y="1240"/>
    </contour>
    <contour>
      <point x="-804" y="1502" type="line"/>
      <point x="-683" y="1502" type="line"/>
      <point x="-599" y="1570"/>
      <point x="-529" y="1638"/>
      <point x="-472" y="1708" type="curve"/>
      <point x="-472" y="1729" type="line"/>
      <point x="-685" y="1729" type="line"/>
      <point x="-712" y="1672"/>
      <point x="-752" y="1605"/>
      <point x="-804" y="1529" type="curve"/>
    </contour>
  </outline>
</glyph>
<glyph name="g892" format="2">
  <note>
g892
</note>
  <anchor x="-707" y="1124" name="_top"/>
  <outline>
    <contour>
      <point x="-703" y="1240" type="curve" smooth="yes"/>
      <point x="-494" y="1240"/>
      <point x="-376" y="1354"/>
      <point x="-361" y="1565" type="curve"/>
      <point x="-504" y="1565" type="line"/>
      <point x="-516" y="1452"/>
      <point x="-597" y="1403"/>
      <point x="-705" y="1403" type="curve" smooth="yes"/>
      <point x="-816" y="1403"/>
      <point x="-896" y="1455"/>
      <point x="-908" y="1565" type="curve"/>
      <point x="-1051" y="1565" type="line"/>
      <point x="-1036" y="1360"/>
      <point x="-912" y="1240"/>
    </contour>
    <contour>
      <point x="-740" y="1502" type="curve"/>
      <point x="-617" y="1502" type="line"/>
      <point x="-617" y="1529" type="line"/>
      <point x="-662" y="1590"/>
      <point x="-701" y="1656"/>
      <point x="-736" y="1729" type="curve"/>
      <point x="-948" y="1729" type="line"/>
      <point x="-948" y="1708" type="line"/>
      <point x="-897" y="1641"/>
      <point x="-827" y="1572"/>
    </contour>
  </outline>
</glyph>
<glyph name="one.osf" format="2">
  <advance width="923"/>
  <note>
g900
</note>
  <outline>
    <contour>
      <point x="414.2" y="0" type="line"/>
      <point x="722.6" y="0" type="line"/>
      <point x="722.6" y="1139" type="line"/>
      <point x="412.2" y="1139" type="line"/>
      <point x="40" y="703" type="line"/>
      <point x="255.5" y="531.2" type="line"/>
      <point x="399.5" y="699.4" type="line"/>
      <point x="432.3" y="738"/>
      <point x="464.4" y="776.3"/>
      <point x="497.2" y="814.9" type="curve"/>
      <point x="420.8" y="814.1" type="line"/>
      <point x="418.6" y="757.4"/>
      <point x="414.2" y="557.6"/>
      <point x="414.2" y="522.9" type="curve" smooth="yes"/>
    </contour>
  </outline>
</glyph>
<glyph name="uni047C.rvrn" format="2">
  <advance width="1704"/>
  <note>
uni047C
</note>
  <outline>
    <contour>
      <point x="577" y="-20" type="curve" smooth="yes"/>
      <point x="686" y="-20"/>
      <point x="774" y="13"/>
      <point x="850" y="98" type="curve"/>
      <point x="942" y="12"/>
      <point x="1022" y="-20"/>
      <point x="1132" y="-20" type="curve" smooth="yes"/>
      <point x="1238" y="-20"/>
      <point x="1327" y="14"/>
      <point x="1400" y="78" type="curve" smooth="yes"/>
      <point x="1540" y="201"/>
      <point x="1619" y="441"/>
      <point x="1619" y="755" type="curve" smooth="yes"/>
      <point x="1619" y="1218"/>
      <point x="1453" y="1480"/>
      <point x="1178" y="1480" type="curve" smooth="yes"/>
      <point x="1058" y="1480"/>
      <point x="957" y="1430"/>
      <point x="893" y="1373" type="curve"/>
      <point x="989" y="1184" type="line"/>
      <point x="1043" y="1231"/>
      <point x="1099" y="1249"/>
      <point x="1149" y="1249" type="curve" smooth="yes"/>
      <point x="1312" y="1249"/>
      <point x="1350" y="997"/>
      <point x="1350" y="769" type="curve" smooth="yes"/>
      <point x="1350" y="517"/>
      <point x="1295" y="231"/>
      <point x="1105" y="231" type="curve" smooth="yes"/>
      <point x="1059" y="231"/>
      <point x="1013" y="247"/>
      <point x="970" y="275" type="curve"/>
      <point x="970" y="685" type="line"/>
      <point x="728" y="685" type="line"/>
      <point x="728" y="273" type="line"/>
      <point x="686" y="247"/>
      <point x="642" y="231"/>
      <point x="600" y="231" type="curve" smooth="yes"/>
      <point x="412" y="231"/>
      <point x="356" y="513"/>
      <point x="356" y="762" type="curve" smooth="yes"/>
      <point x="356" y="999"/>
      <point x="394" y="1249"/>
      <point x="551" y="1249" type="curve" smooth="yes"/>
      <point x="600" y="1249"/>
      <point x="657" y="1227"/>
      <point x="711" y="1184" type="curve"/>
      <point x="811" y="1373" type="line"/>
      <point x="732" y="1440"/>
      <point x="639" y="1480"/>
      <point x="531" y="1480" type="curve" smooth="yes"/>
      <point x="254" y="1480"/>
      <point x="86" y="1219"/>
      <point x="86" y="760" type="curve" smooth="yes"/>
      <point x="86" y="593"/>
      <point x="109" y="439"/>
      <point x="151" y="321" type="curve" smooth="yes"/>
      <point x="227" y="101"/>
      <point x="375" y="-20"/>
    </contour>
    <contour>
      <point x="743" y="1503" type="line"/>
      <point x="912" y="1520"/>
      <point x="1024" y="1615"/>
      <point x="1024" y="1748" type="curve" smooth="yes"/>
      <point x="1024" y="1836"/>
      <point x="974" y="1898"/>
      <point x="870" y="1898" type="curve" smooth="yes"/>
      <point x="788" y="1898"/>
      <point x="745" y="1860"/>
      <point x="745" y="1800" type="curve" smooth="yes"/>
      <point x="745" y="1765"/>
      <point x="760" y="1743"/>
      <point x="803" y="1728" type="curve" smooth="yes"/>
      <point x="830" y="1718"/>
      <point x="860" y="1705"/>
      <point x="860" y="1679" type="curve" smooth="yes"/>
      <point x="860" y="1648"/>
      <point x="825" y="1610"/>
      <point x="743" y="1587" type="curve"/>
    </contour>
    <contour>
      <point x="524" y="1870" type="line"/>
      <point x="678" y="1870" type="line"/>
      <point x="678" y="1939"/>
      <point x="698" y="1980"/>
      <point x="790" y="1980" type="curve" smooth="yes"/>
      <point x="826" y="1980"/>
      <point x="850" y="1973"/>
      <point x="912" y="1951" type="curve" smooth="yes"/>
      <point x="943" y="1940"/>
      <point x="977" y="1927"/>
      <point x="1015" y="1912" type="curve" smooth="yes"/>
      <point x="1105" y="1879"/>
      <point x="1162" y="1872"/>
      <point x="1290" y="1872" type="curve" smooth="yes"/>
      <point x="1307" y="1872" type="line"/>
      <point x="1307" y="2053" type="line"/>
      <point x="1218" y="2053"/>
      <point x="1144" y="2063"/>
      <point x="1040" y="2106" type="curve" smooth="yes"/>
      <point x="1013" y="2116"/>
      <point x="989" y="2127"/>
      <point x="964" y="2137" type="curve" smooth="yes"/>
      <point x="904" y="2160"/>
      <point x="850" y="2173"/>
      <point x="782" y="2173" type="curve" smooth="yes"/>
      <point x="614" y="2173"/>
      <point x="525" y="2100"/>
      <point x="524" y="1918" type="curve" smooth="yes"/>
    </contour>
  </outline>
</glyph>
